<svg xmlns="http://www.w3.org/2000/svg" width="84.146" height="80.838" viewBox="0 0 84.146 80.838">
  <g id="_x35_-Talk_On_Phone" transform="translate(-7.844 -8.794)">
    <g id="Group_10696" data-name="Group 10696" transform="translate(7.843 8.793)">
      <path id="Path_5631" data-name="Path 5631" d="M81.793,68.032,70.509,60.149a8.7,8.7,0,0,0-12.127,2.158l-2.619,3.753A96.966,96.966,0,0,1,41.8,54.337,97.073,97.073,0,0,1,30.081,40.379l3.752-2.618A8.7,8.7,0,0,0,35.99,25.63L28.108,14.347a8.7,8.7,0,0,0-9.952-3.258,15.8,15.8,0,0,0-2.934,1.44l-1.56,1.1a12.092,12.092,0,0,0-1.1.979,15.633,15.633,0,0,0-4.011,7.15c-3.249,12.177,4.8,30.585,20.021,45.807C41.362,80.348,56.719,88.29,68.659,88.291h0a22.269,22.269,0,0,0,5.727-.707,15.645,15.645,0,0,0,7.147-4.01,11.574,11.574,0,0,0,1.032-1.167l1.1-1.567a15.49,15.49,0,0,0,1.388-2.856,8.572,8.572,0,0,0-3.259-9.952Z" transform="translate(-7.843 -7.453)" fill="#0e4cc1"/>
      <path id="Path_5632" data-name="Path 5632" d="M73.7,8.793H31.9a1.741,1.741,0,0,0-1.742,1.742V34.919A1.741,1.741,0,0,0,31.9,36.66h6.183l4.155,8.85a1.742,1.742,0,0,0,3.153,0l4.157-8.851H73.7a1.741,1.741,0,0,0,1.742-1.742V10.535A1.741,1.741,0,0,0,73.7,8.793ZM64.881,27.952H40.715a1.742,1.742,0,0,1,0-3.483H64.881a1.742,1.742,0,0,1,0,3.483Zm0-6.967H40.715a1.742,1.742,0,0,1,0-3.483H64.881a1.742,1.742,0,0,1,0,3.483Z" transform="translate(8.706 -8.793)"/>
    </g>
  </g>
</svg>
