<svg id="blueprint" xmlns="http://www.w3.org/2000/svg" width="38.999" height="39" viewBox="0 0 38.999 39">
  <g id="Page-1_5_" transform="translate(0 0)">
    <g id="_x30_06---Draw-Blueprint" transform="translate(0 0)">
      <path id="Shape_33_" d="M359.476,202.752l-.267,2.37a.481.481,0,0,0,.139.393.464.464,0,0,0,.4.139l2.375-.27a1.377,1.377,0,0,0,.134-.038l-2.743-2.743A1.317,1.317,0,0,0,359.476,202.752Z" transform="translate(-336.228 -189.642)" fill="#0d2b51"/>
      <path id="Rectangle-path_3_" d="M0,0H10.732V4.309H0Z" transform="translate(24.126 11.839) rotate(-45)" fill="#0d2b51"/>
      <path id="Rectangle-path_1_" d="M0,0H1.46V4.307H0Z" transform="translate(32.695 3.258) rotate(-45)" fill="#0d2b51"/>
      <path id="Shape_32_" d="M546.747,3.263a.713.713,0,0,0,.218-.512.731.731,0,0,0-.218-.522L544.736.219a.729.729,0,0,0-.52-.219.714.714,0,0,0-.509.216l-1.025,1.023,3.045,3.045Z" transform="translate(-507.966 0)" fill="#0d2b51"/>
      <path id="Shape_31_" d="M4.183,29.25H5.576a.7.7,0,0,0,.7-.7V.7a.7.7,0,0,0-.7-.7H4.183A4.183,4.183,0,0,0,0,4.179V31.14A5.56,5.56,0,0,1,4.183,29.25Z" transform="translate(-0.005 0)" fill="#00d563"/>
      <path id="Shape_30_" d="M4.385,181.657H38.308a.7.7,0,0,0,.7-.7V153.1a.7.7,0,0,0-.7-.7H34.269l-6.612,6.616a2.727,2.727,0,0,1-1.6.763c-2.35.264-2.372.282-2.575.282H13.237v7.661H29.951v-3.482a.7.7,0,1,1,1.393,0v10.446a1.393,1.393,0,0,1-1.393,1.393H16.023a.7.7,0,0,1,0-1.393H20.9v-5.571H13.237v9.75a.7.7,0,0,1-1.393,0v-18.8H9.755a.7.7,0,1,1,0-1.393H21.67a1.855,1.855,0,0,1-.065-.688l.264-2.373a2.69,2.69,0,0,1,.79-1.625l1.582-1.582H7.666v18.8A2.089,2.089,0,0,1,5.576,173.3H4.184a4.183,4.183,0,0,0-4.178,4.178v.153a4.318,4.318,0,0,0,4.38,4.025Z" transform="translate(-0.005 -142.657)" fill="#00d563"/>
      <path id="Rectangle-path_2_" d="M348.363,413.676h7.661v5.571h-7.661Z" transform="translate(-326.078 -387.212)" fill="#00d563"/>
    </g>
  </g>
</svg>
