<svg id="contact" xmlns="http://www.w3.org/2000/svg" width="20.068" height="18.993" viewBox="0 0 20.068 18.993">
  <g id="Group_11034" data-name="Group 11034">
    <path id="Path_6466" data-name="Path 6466" d="M15.285,117.117,11.9,114.862a.348.348,0,0,0-.466.076l-.985,1.266a1.056,1.056,0,0,1-1.353.279l-.182-.1a11.9,11.9,0,0,1-3.1-2.428,11.883,11.883,0,0,1-2.428-3.1l-.1-.182a1.056,1.056,0,0,1,.279-1.353l1.266-.985a.348.348,0,0,0,.076-.466l-2.255-3.383a.347.347,0,0,0-.466-.105l-1.415.849a1.362,1.362,0,0,0-.623.8c-.465,1.693-.074,4.657,4.428,9.16s7.466,4.894,9.16,4.429a1.362,1.362,0,0,0,.8-.624l.848-1.415A.346.346,0,0,0,15.285,117.117Z" transform="translate(0 -100.779)" fill="#00d563"/>
    <path id="Path_6467" data-name="Path 6467" d="M114.967,13.757a.2.2,0,0,0-.14-.057H99.809a.195.195,0,0,0-.2.2v5.218l.852,1.277a1.067,1.067,0,0,1-.232,1.429l-1.265.985a.342.342,0,0,0-.092.438l.1.188a9.037,9.037,0,0,0,1.2,1.743h14.654a.2.2,0,0,0,.2-.193V13.9A.2.2,0,0,0,114.967,13.757Zm-10.184,6.519v0l-3.672,3.934a.358.358,0,0,1-.524-.489l3.672-3.932a.358.358,0,0,1,.524.489Zm2.534-.282a1.188,1.188,0,0,1-.717-.237l-5.991-4.543a.359.359,0,1,1,.435-.571l5.988,4.543a.484.484,0,0,0,.569,0l5.99-4.543a.359.359,0,1,1,.433.571l-5.991,4.543A1.188,1.188,0,0,1,107.318,19.993Zm6.736,4.232a.358.358,0,0,1-.507-.018l-3.671-3.934a.358.358,0,0,1,.525-.487l3.671,3.932A.358.358,0,0,1,114.054,24.225Z" transform="translate(-94.957 -13.7)" fill="#0d2b51"/>
  </g>
</svg>
