<svg id="customer_1_" data-name="customer (1)" xmlns="http://www.w3.org/2000/svg" width="45.113" height="45.117" viewBox="0 0 45.113 45.117">
  <g id="Group_10396" data-name="Group 10396" transform="translate(18.505)">
    <g id="Group_10395" data-name="Group 10395">
      <path id="Path_5424" data-name="Path 5424" d="M215.4,0a5.444,5.444,0,0,0-5.375,5.375,5.444,5.444,0,0,0,5.375,5.375A5.376,5.376,0,0,0,215.4,0Z" transform="translate(-210.029)" fill="#0d2b51"/>
    </g>
  </g>
  <g id="Group_10398" data-name="Group 10398" transform="translate(15.862 10.751)">
    <g id="Group_10397" data-name="Group 10397">
      <path id="Path_5425" data-name="Path 5425" d="M193.916,122a7.883,7.883,0,0,1-5.868,2.644A8.075,8.075,0,0,1,182.092,122a7.87,7.87,0,0,0-2.063,5.287v1.322a1.321,1.321,0,0,0,1.322,1.322h13.306a1.321,1.321,0,0,0,1.322-1.322v-1.322A7.87,7.87,0,0,0,193.916,122Z" transform="translate(-180.029 -122)" fill="#0d2b51"/>
    </g>
  </g>
  <g id="Group_10400" data-name="Group 10400" transform="translate(0 25.601)">
    <g id="Group_10399" data-name="Group 10399">
      <path id="Path_5426" data-name="Path 5426" d="M12.795,305.5,6.059,292a2.643,2.643,0,0,0-3.539-1.189l-1.761.872a1.323,1.323,0,0,0-.6,1.776l7.931,15.861a1.323,1.323,0,0,0,1.77.594l1.738-.861A2.644,2.644,0,0,0,12.795,305.5Z" transform="translate(-0.024 -290.532)" fill="#00d563"/>
    </g>
  </g>
  <g id="Group_10402" data-name="Group 10402" transform="translate(7.842 20.838)">
    <g id="Group_10401" data-name="Group 10401">
      <path id="Path_5427" data-name="Path 5427" d="M125.208,237.467a2.635,2.635,0,0,0-3.49.344l-7.226,8.882a3.2,3.2,0,0,1-1.956.846h-6.16a1.322,1.322,0,1,1,0-2.644h5.287a2.644,2.644,0,1,0,0-5.287h-6.926c-.659,0-.987-.418-1.507-.872a9.2,9.2,0,0,0-8.206-2.009,9.643,9.643,0,0,0-4.058,2.026l-.039-.032L89.016,240.4l7.513,15.066h15.134a7.963,7.963,0,0,0,6.345-3.172l7.754-11.1A2.664,2.664,0,0,0,125.208,237.467Z" transform="translate(-89.016 -236.479)" fill="#00d563"/>
    </g>
  </g>
</svg>
