<svg xmlns="http://www.w3.org/2000/svg" width="74" height="74" viewBox="0 0 74 74">
  <g id="Group_12432" data-name="Group 12432" transform="translate(-148 -2487.1)">
    <g id="Ellipse_7" data-name="Ellipse 7" transform="translate(148 2487.1)" fill="#fff" stroke="#00d563" stroke-width="2">
      <circle cx="37" cy="37" r="37" stroke="none"/>
      <circle cx="37" cy="37" r="36" fill="none"/>
    </g>
    <g id="international-e-commerce" transform="translate(157.51 2502.053)">
      <g id="Group_12428" data-name="Group 12428" transform="translate(5.699)">
        <path id="Path_8508" data-name="Path 8508" d="M10.181,18.154l.351,1.375,3.861,15.118H37.405l.572-3.054q.724-.229,1.429-.526A16.168,16.168,0,0,0,33.242,0l-.129,0-.129,0a16.156,16.156,0,0,0-16.04,16.168,16.257,16.257,0,0,0,.269,2.953H13.44l-.993-3.888H5.7v1.459h0v1.459h4.482Zm9.761-.525h4.121q.037.754.11,1.492H20.19A13.273,13.273,0,0,1,19.941,17.629ZM22.39,8.379a19.053,19.053,0,0,0,2.451.982,27.259,27.259,0,0,0-.779,5.348H19.941A13.113,13.113,0,0,1,22.39,8.379Zm4.327-3.822q-.15.262-.293.538-.369.712-.685,1.494-.658-.215-1.267-.469A13.244,13.244,0,0,1,26.717,4.558ZM41.758,6.126q-.61.254-1.271.469-.316-.783-.687-1.5-.143-.276-.293-.538A13.236,13.236,0,0,1,41.758,6.126Zm4.526,8.584H42.163a27.267,27.267,0,0,0-.777-5.343,19.083,19.083,0,0,0,2.454-.981A13.115,13.115,0,0,1,46.284,14.71ZM43.808,24a18.937,18.937,0,0,0-2.436-.973,27.232,27.232,0,0,0,.791-5.4h4.121A13.114,13.114,0,0,1,43.808,24ZM26.984,17.629h4.669v1.489l-4.548,0Q27.025,18.385,26.984,17.629Zm.681-7.54a28.151,28.151,0,0,0,3.989.481V14.71H26.984A24.2,24.2,0,0,1,27.665,10.088ZM39.241,14.71H34.572V10.57a28.159,28.159,0,0,0,3.99-.478A24.194,24.194,0,0,1,39.241,14.71Zm-.121,4.4-4.548,0V17.629h4.669Q39.2,18.382,39.12,19.115ZM37.62,7.3a25.409,25.409,0,0,1-3.049.346V3.342a7.454,7.454,0,0,1,2.638,3.1Q37.426,6.856,37.62,7.3ZM31.653,3.342V7.648A25.4,25.4,0,0,1,28.606,7.3q.194-.444.409-.861A7.454,7.454,0,0,1,31.653,3.342Zm7.854,24.439q.15-.262.293-.538.358-.69.665-1.445.645.209,1.244.456A13.225,13.225,0,0,1,39.508,27.781ZM19.622,22.04H36.8L36.264,24.9l-.606,3.234-.2,1.084-.2,1.077-.083.444-.186.993H16.66l-2.474-9.687h5.436Z" transform="translate(-5.699)" fill="#00d563"/>
        <path id="Path_8509" data-name="Path 8509" d="M205.164,798.822a4.309,4.309,0,1,0,0-8.617h-15.62a4.308,4.308,0,1,0,4.078,2.918h7.463a4.309,4.309,0,0,0,4.078,5.7Zm-14.229-4.309a1.39,1.39,0,1,1-1.39-1.39A1.392,1.392,0,0,1,190.935,794.514Zm15.62,0a1.39,1.39,0,1,1-1.39-1.39A1.392,1.392,0,0,1,206.555,794.514Z" transform="translate(-177.175 -754.728)" fill="#0d2b51"/>
      </g>
    </g>
  </g>
</svg>
