<svg xmlns="http://www.w3.org/2000/svg" width="74" height="74" viewBox="0 0 74 74">
  <g id="Group_12437" data-name="Group 12437" transform="translate(-974 -3745)">
    <g id="Ellipse_8" data-name="Ellipse 8" transform="translate(974 3745)" fill="#fff" stroke="#00d563" stroke-width="2">
      <circle cx="37" cy="37" r="37" stroke="none"/>
      <circle cx="37" cy="37" r="36" fill="none"/>
    </g>
    <g id="seo" transform="translate(978.636 3763.41)">
      <path id="Path_8520" data-name="Path 8520" d="M38.89,14.423l-2.584,2.583h0a9.836,9.836,0,0,1-16.16,4.369l6.764-6.764,3.583,3.583a1.089,1.089,0,0,0,1.54,0L42.156,8.08l1.4,1.4a1.09,1.09,0,0,0,1.86-.769l.007-7.621A1.089,1.089,0,0,0,45.1.319,1.07,1.07,0,0,0,44.333,0L36.717.013a1.09,1.09,0,0,0-.768,1.859L37.33,3.254l-6.1,6.1L27.591,5.715a1.089,1.089,0,0,0-1.54,0l-9.006,9.006A9.854,9.854,0,0,1,31.814,5.69L33.4,4.1A12.021,12.021,0,1,0,38.89,14.423Z" transform="translate(0 0)" fill="#00d563"/>
      <path id="Path_8521" data-name="Path 8521" d="M298.452,308.617l-10.6-10.6a14.308,14.308,0,0,1-4.616,4.626l10.593,10.593a1.089,1.089,0,0,0,1.54,0l3.081-3.081a1.089,1.089,0,0,0,0-1.54Z" transform="translate(-248.895 -276.377)" fill="#0d2b51"/>
    </g>
  </g>
</svg>
