<svg xmlns="http://www.w3.org/2000/svg" width="62.322" height="62.322" viewBox="0 0 62.322 62.322">
  <g id="Group_11301" data-name="Group 11301" transform="translate(-1500 -4075.5)">
    <circle id="Ellipse_200" data-name="Ellipse 200" cx="31.161" cy="31.161" r="31.161" transform="translate(1500 4075.5)" fill="#fff"/>
    <g id="expert" transform="translate(1511.281 4085.698)">
      <path id="Path_6496" data-name="Path 6496" d="M40.26,347.087l-5.272-.749-2.326-4.6-2.325,4.6-3.816.543-3.815-.543-2.326-4.6-2.326,4.6-3.816.543-3.815-.543-2.326-4.6-2.326,4.6L.5,347.087l3.817,3.632-.894,4.96L8.1,353.406l4.674,2.272-.894-4.959,2.361-2.246,2.361,2.246-.894,4.96,4.674-2.274,4.674,2.272-.894-4.959,2.361-2.246,2.361,2.246-.894,4.96,4.674-2.274,4.674,2.272-.894-4.959Zm0,0" transform="translate(-0.5 -313.755)" fill="#0d2b51"/>
      <path id="Path_6497" data-name="Path 6497" d="M155.473,158.594a8.6,8.6,0,0,0-17.2,0v6.141h17.2Zm0,0" transform="translate(-126.995 -137.714)" fill="#00d563"/>
      <path id="Path_6498" data-name="Path 6498" d="M180.559,6.141a6.141,6.141,0,1,0-6.141,6.141,6.148,6.148,0,0,0,6.141-6.141Zm0,0" transform="translate(-154.539 0)" fill="#00d563"/>
    </g>
  </g>
</svg>
