<svg xmlns="http://www.w3.org/2000/svg" width="74" height="74" viewBox="0 0 74 74">
  <g id="Group_12487" data-name="Group 12487" transform="translate(-763 -4846)">
    <g id="Ellipse_9" data-name="Ellipse 9" transform="translate(763 4846)" fill="#f7f8f7" stroke="#00d563" stroke-width="2">
      <circle cx="37" cy="37" r="37" stroke="none"/>
      <circle cx="37" cy="37" r="36" fill="none"/>
    </g>
    <g id="debugging_1_" data-name="debugging (1)" transform="translate(780.718 4863.718)">
      <path id="Path_8575" data-name="Path 8575" d="M163.524,120H160.4l-1.13,2.26h5.382Z" transform="translate(-147.276 -110.962)" fill="#0d2b51"/>
      <path id="Path_8576" data-name="Path 8576" d="M150,183.389a3.384,3.384,0,0,0,2.26,3.181V180H150Z" transform="translate(-138.702 -166.442)" fill="#0d2b51"/>
      <path id="Path_8577" data-name="Path 8577" d="M14.688,0A14.688,14.688,0,1,0,29.375,14.688,14.7,14.7,0,0,0,14.688,0Zm6.779,15.817a3.393,3.393,0,0,1,3.389,3.389,1.13,1.13,0,0,1-2.26,0,1.131,1.131,0,0,0-1.13-1.13H20.222a5.6,5.6,0,0,1-1.138,2.373,4.357,4.357,0,0,1,1.252,3.038v.238a1.13,1.13,0,1,1-2.26,0v-.238a2.124,2.124,0,0,0-.717-1.595,5.43,5.43,0,0,1-5.345,0,2.124,2.124,0,0,0-.717,1.595v.238a1.13,1.13,0,0,1-2.26,0v-.238A4.356,4.356,0,0,1,10.29,20.45a5.6,5.6,0,0,1-1.138-2.373H7.909a1.131,1.131,0,0,0-1.13,1.13,1.13,1.13,0,1,1-2.26,0,3.393,3.393,0,0,1,3.389-3.389h1.13V13.126L7.165,12.19a.266.266,0,0,0-.386.238,1.13,1.13,0,0,1-2.26,0,2.526,2.526,0,0,1,3.655-2.26l1.488.744,1.151-2.3A3.378,3.378,0,0,1,9.038,5.649a1.13,1.13,0,1,1,2.26,0,1.131,1.131,0,0,0,1.13,1.13h4.519a1.131,1.131,0,0,0,1.13-1.13,1.13,1.13,0,1,1,2.26,0,3.378,3.378,0,0,1-1.775,2.962l1.151,2.3,1.487-.744a2.526,2.526,0,0,1,3.656,2.26,1.13,1.13,0,0,1-2.26,0,.267.267,0,0,0-.387-.238l-1.872.937v2.691Z" fill="#00d563"/>
      <path id="Path_8578" data-name="Path 8578" d="M210,186.571a3.384,3.384,0,0,0,2.26-3.181V180H210Z" transform="translate(-194.183 -166.442)" fill="#0d2b51"/>
      <path id="Path_8579" data-name="Path 8579" d="M318.959,323.752l1.817,1.817,4.793-4.793-1.817-1.817A17.078,17.078,0,0,1,318.959,323.752Z" transform="translate(-294.935 -294.935)" fill="#0d2b51"/>
      <path id="Path_8580" data-name="Path 8580" d="M374.424,369.631l-5.342-5.342-4.793,4.793,5.342,5.342a3.389,3.389,0,1,0,4.793-4.793Z" transform="translate(-336.85 -336.85)" fill="#0d2b51"/>
    </g>
  </g>
</svg>
