<svg xmlns="http://www.w3.org/2000/svg" width="97.727" height="94.377" viewBox="0 0 97.727 94.377">
  <g id="Group_12313" data-name="Group 12313" transform="translate(-682.762 -9962.27)">
    <ellipse id="Ellipse_192" data-name="Ellipse 192" cx="48.864" cy="47.188" rx="48.864" ry="47.188" transform="translate(682.762 9962.27)" fill="#fff"/>
    <g id="coding_2_" data-name="coding (2)" transform="translate(706.516 9985.156)">
      <path id="Path_5402" data-name="Path 5402" d="M140.385,441.732h-3.629V438.25H119.1v3.482h-3.629a1.471,1.471,0,1,0,0,2.943h24.913a1.471,1.471,0,1,0,0-2.942Z" transform="translate(-102.818 -396.074)" fill="#0d2b51"/>
      <path id="Path_5403" data-name="Path 5403" d="M0,351.193a2.946,2.946,0,0,0,2.943,2.943H47.277a2.946,2.946,0,0,0,2.943-2.943V348.25H0Z" transform="translate(0 -314.901)" fill="#0d2b51"/>
      <path id="Path_5404" data-name="Path 5404" d="M47.277,8.25H2.943A2.946,2.946,0,0,0,0,11.193V38.656H50.219V11.193A2.946,2.946,0,0,0,47.277,8.25ZM34.92,21.491a1.471,1.471,0,0,1-1.471,1.471H17.165a1.471,1.471,0,0,1,0-2.943H33.449A1.471,1.471,0,0,1,34.92,21.491ZM13.241,14.135h6.179a1.471,1.471,0,0,1,0,2.943H13.241a1.471,1.471,0,0,1,0-2.943Zm-5.885,20.6a1.471,1.471,0,1,1,1.471-1.471A1.474,1.474,0,0,1,7.356,34.733Zm0-5.885a1.471,1.471,0,1,1,1.471-1.471A1.474,1.474,0,0,1,7.356,28.848Zm0-5.885a1.471,1.471,0,1,1,1.471-1.471A1.474,1.474,0,0,1,7.356,22.963Zm0-5.885a1.471,1.471,0,1,1,1.471-1.471A1.474,1.474,0,0,1,7.356,17.078ZM19.421,34.733H13.241a1.471,1.471,0,0,1,0-2.943h6.179a1.471,1.471,0,0,1,0,2.943Zm4.61-5.885H17.165a1.471,1.471,0,1,1,0-2.943h6.866a1.471,1.471,0,1,1,0,2.943Zm10.152,0H29.1a1.471,1.471,0,1,1,0-2.943h5.084a1.471,1.471,0,0,1,0,2.943Zm8.68,0H39.332a1.471,1.471,0,1,1,0-2.943h3.531a1.471,1.471,0,1,1,0,2.943Zm0-5.885H39.332a1.471,1.471,0,1,1,0-2.943h3.531a1.471,1.471,0,1,1,0,2.943Z" transform="translate(0 -8.25)" fill="#00d563"/>
    </g>
  </g>
</svg>
