<svg id="Group_12316" data-name="Group 12316" xmlns="http://www.w3.org/2000/svg" width="94.376" height="94.376" viewBox="0 0 94.376 94.376">
  <circle id="Ellipse_192" data-name="Ellipse 192" cx="47.188" cy="47.188" r="47.188" fill="#fff"/>
  <g id="deployment_1_" data-name="deployment (1)" transform="translate(26.783 21.681)">
    <path id="Path_5416" data-name="Path 5416" d="M362,17.692h8.9l-8.9-8.9Z" transform="translate(-330.933 -7.905)" fill="#00d563"/>
    <path id="Path_5417" data-name="Path 5417" d="M80.556,12.8V0H52.5V45.371h5.564a11.713,11.713,0,0,1,4.053-11.3A52.981,52.981,0,0,1,61.641,27a15.789,15.789,0,0,1,10.81-15l.476-.159.476.159a15.789,15.789,0,0,1,10.81,15,52.982,52.982,0,0,1-.475,7.067,11.713,11.713,0,0,1,4.053,11.3h5.564V12.8ZM63.04,15.057H58.523V12.046H63.04Zm4.517-6.023H58.523V6.023h9.034Z" transform="translate(-52.5)" fill="#00d563"/>
    <path id="Path_5418" data-name="Path 5418" d="M138.067,377.821q-.266-1.064-.486-2.139a8.664,8.664,0,0,0-1.488,7.992l.421,1.353,2.984-1.485Z" transform="translate(-127.344 -337.971)" fill="#0d2b51"/>
    <path id="Path_5419" data-name="Path 5419" d="M341.837,383.674a8.665,8.665,0,0,0-1.488-7.992q-.222,1.074-.486,2.139l-1.43,5.721,2.984,1.485Z" transform="translate(-309.731 -337.971)" fill="#0d2b51"/>
    <path id="Path_5420" data-name="Path 5420" d="M206.044,477.044h10.029v3.509H206.044Z" transform="translate(-190.631 -429.159)" fill="#0d2b51"/>
    <path id="Path_5421" data-name="Path 5421" d="M188.829,294.636a50,50,0,0,0,1.468-10.609h-3.731a4.764,4.764,0,0,1-9.041,0h-3.731a50,50,0,0,0,1.468,10.609l1.439,5.755H187.39Z" transform="translate(-161.619 -255.517)" fill="#0d2b51"/>
    <path id="Path_5422" data-name="Path 5422" d="M178.112,160.224a4.764,4.764,0,0,1,9.041,0h3.666a12.779,12.779,0,0,0-8.186-10.466,12.779,12.779,0,0,0-8.186,10.466Z" transform="translate(-162.205 -134.725)" fill="#0d2b51"/>
    <path id="Path_5423" data-name="Path 5423" d="M242.031,253.3a1.754,1.754,0,1,0-1.755,1.754A1.757,1.757,0,0,0,242.031,253.3Z" transform="translate(-219.849 -226.298)" fill="#0d2b51"/>
  </g>
</svg>
