<svg xmlns="http://www.w3.org/2000/svg" width="74" height="74" viewBox="0 0 74 74">
  <g id="Group_12429" data-name="Group 12429" transform="translate(-148 -1930.316)">
    <g id="Ellipse_4" data-name="Ellipse 4" transform="translate(148 1930.316)" fill="#fff" stroke="#00d563" stroke-width="2">
      <circle cx="37" cy="37" r="37" stroke="none"/>
      <circle cx="37" cy="37" r="36" fill="none"/>
    </g>
    <g id="web-development" transform="translate(167.695 1949.078)">
      <path id="Path_8510" data-name="Path 8510" d="M34.611,9.112V4.042A3.045,3.045,0,0,0,31.569,1H3.042A3.045,3.045,0,0,0,0,4.042v5.07ZM23.389,5.056h6.084a1.014,1.014,0,0,1,0,2.028H23.389a1.014,1.014,0,0,1,0-2.028Zm-10.14,0A1.014,1.014,0,1,1,12.235,6.07,1.014,1.014,0,0,1,13.249,5.056Zm-4.056,0A1.014,1.014,0,1,1,8.179,6.07,1.014,1.014,0,0,1,9.193,5.056Zm-4.056,0A1.014,1.014,0,1,1,4.124,6.07,1.014,1.014,0,0,1,5.138,5.056Z" transform="translate(0 0)" fill="#0d2b51"/>
      <path id="Path_8511" data-name="Path 8511" d="M0,151v21.294a3.045,3.045,0,0,0,3.042,3.042H31.569a3.045,3.045,0,0,0,3.042-3.042V151Zm11.855,14.418A1.014,1.014,0,1,1,10.588,167l-5.07-4.056a1.014,1.014,0,0,1,0-1.584l5.07-4.056a1.014,1.014,0,1,1,1.267,1.583l-4.08,3.264Zm9.424-9.963-6.084,14.2a1.014,1.014,0,0,1-1.864-.8l6.084-14.2a1.014,1.014,0,0,1,1.864.8Zm7.813,7.49L24.023,167a1.014,1.014,0,1,1-1.267-1.584l4.08-3.264-4.08-3.264a1.014,1.014,0,1,1,1.267-1.583l5.07,4.056A1.014,1.014,0,0,1,29.093,162.946Z" transform="translate(0 -139.86)" fill="#00d563"/>
    </g>
  </g>
</svg>
