<svg xmlns="http://www.w3.org/2000/svg" width="72.167" height="72.167" viewBox="0 0 72.167 72.167">
  <g id="Group_12476" data-name="Group 12476" transform="translate(-148 -7780.347)">
    <g id="Ellipse_257" data-name="Ellipse 257" transform="translate(148 7780.347)" fill="none" stroke="#0fa554" stroke-width="2">
      <circle cx="36.083" cy="36.083" r="36.083" stroke="none"/>
      <circle cx="36.083" cy="36.083" r="35.083" fill="none"/>
    </g>
    <g id="web-development_1_" data-name="web-development (1)" transform="translate(165.473 7796.893)">
      <path id="Path_8570" data-name="Path 8570" d="M37.222,9.724V4.271A3.275,3.275,0,0,0,33.95,1H3.271A3.275,3.275,0,0,0,0,4.271V9.724ZM25.154,5.362H31.7a1.09,1.09,0,1,1,0,2.181H25.154a1.09,1.09,0,1,1,0-2.181Zm-10.9,0a1.09,1.09,0,1,1-1.09,1.09A1.091,1.091,0,0,1,14.249,5.362Zm-4.362,0A1.09,1.09,0,1,1,8.8,6.452,1.091,1.091,0,0,1,9.887,5.362Zm-4.362,0a1.09,1.09,0,1,1-1.09,1.09A1.091,1.091,0,0,1,5.525,5.362Z" fill="#00d563"/>
      <path id="Path_8571" data-name="Path 8571" d="M0,151v22.9a3.275,3.275,0,0,0,3.271,3.271H33.95a3.275,3.275,0,0,0,3.271-3.271V151Zm12.749,15.506a1.09,1.09,0,1,1-1.362,1.7l-5.452-4.362a1.091,1.091,0,0,1,0-1.7l5.452-4.362a1.09,1.09,0,1,1,1.362,1.7L8.361,163Zm10.135-10.714-6.543,15.267a1.09,1.09,0,1,1-2-.859l6.543-15.267a1.09,1.09,0,0,1,2,.859Zm8.4,8.055-5.452,4.362a1.09,1.09,0,1,1-1.362-1.7L28.861,163l-4.388-3.51a1.09,1.09,0,1,1,1.362-1.7l5.452,4.362A1.091,1.091,0,0,1,31.288,163.847Z" transform="translate(0 -139.095)" fill="#0d2b51"/>
    </g>
  </g>
</svg>
