<svg xmlns="http://www.w3.org/2000/svg" width="72.167" height="72.167" viewBox="0 0 72.167 72.167">
  <g id="Group_12475" data-name="Group 12475" transform="translate(-744.159 -7580.619)">
    <g id="Ellipse_257" data-name="Ellipse 257" transform="translate(744.159 7580.619)" fill="none" stroke="#0fa554" stroke-width="2">
      <circle cx="36.083" cy="36.083" r="36.083" stroke="none"/>
      <circle cx="36.083" cy="36.083" r="35.083" fill="none"/>
    </g>
    <g id="migrating" transform="translate(756.888 7593.346)">
      <path id="Path_8564" data-name="Path 8564" d="M19.306,58.691H15.158A.691.691,0,0,1,14.467,58H4.32l.159.912a.7.7,0,0,0,.657.47H29.328a.7.7,0,0,0,.657-.47L30.144,58H20A.691.691,0,0,1,19.306,58.691Z" transform="translate(-0.099 -16.673)" fill="#0fd76c"/>
      <path id="Path_8565" data-name="Path 8565" d="M6.691,36a.683.683,0,0,0-.615.38A.735.735,0,0,0,6,36.691V49.824h9.677a.691.691,0,0,1,.691.691h2.765a.691.691,0,0,1,.691-.691H29.5V41.53H28.81A.691.691,0,0,1,28.14,41l-.118-.463-.408.249a.691.691,0,0,1-.843-.1L24.815,38.73a.691.691,0,0,1-.1-.843l.249-.408-.463-.118a.691.691,0,0,1-.525-.67V36Zm8.986,7.6H14.295V42.221h1.382Zm2.765,0H17.059V42.221h1.382Zm2.765,0H19.824V42.221h1.382Z" transform="translate(-0.618 -9.88)" fill="#0d2b51"/>
      <ellipse id="Ellipse_310" data-name="Ellipse 310" cx="1.373" cy="1.413" rx="1.373" ry="1.413" transform="translate(28.172 24.016)" fill="#0d2b51"/>
      <path id="Path_8566" data-name="Path 8566" d="M6.765,16.443h7.977a4.147,4.147,0,0,1,3.083-1.382h.719a7.617,7.617,0,0,1,7.576-6.912c.207,0,.415.014.622.035a3.451,3.451,0,0,0-5.813-1.8.691.691,0,0,1-.518.2.706.706,0,0,1-.5-.256,6.221,6.221,0,0,0-11.066,3.9.691.691,0,0,1-.691.691H6.765a2.765,2.765,0,1,0,0,5.53Z" transform="translate(0 0)" fill="#0fd76c"/>
      <path id="Path_8567" data-name="Path 8567" d="M44.884,18.913H43.259a.711.711,0,0,1-.567-.29.7.7,0,0,1-.083-.629,3.594,3.594,0,0,0,.2-1.154,3.456,3.456,0,0,0-5.882-2.461.691.691,0,0,1-.518.2.706.706,0,0,1-.5-.256,6.221,6.221,0,0,0-11.066,3.9.691.691,0,0,1-.691.691H22.765a2.765,2.765,0,1,0,0,5.53h6.408l1.922-1.922a.691.691,0,0,1,.843-.1l.408.249.118-.463a.691.691,0,0,1,.67-.525H35.9a.691.691,0,0,1,.67.525l.118.463.408-.249a.691.691,0,0,1,.843.1l1.922,1.922h5.025a2.765,2.765,0,1,0,0-5.53Z" transform="translate(-4.941 -2.47)" fill="#0fd76c"/>
      <path id="Path_8568" data-name="Path 8568" d="M41.666,36.854l1.189-1.189-.449-.747a.7.7,0,0,1-.041-.622.7.7,0,0,1,.47-.408l.843-.207V32l-.843-.207a.7.7,0,0,1-.47-.408.7.7,0,0,1,.041-.622l.449-.747-1.189-1.189-.747.442a.684.684,0,0,1-.622.048.7.7,0,0,1-.408-.47L39.682,28H38l-.207.843a.7.7,0,0,1-.408.47.684.684,0,0,1-.622-.048l-.747-.442-1.189,1.189.449.747a.7.7,0,0,1,.041.622.7.7,0,0,1-.47.408L34,32v1.687l.843.207a.7.7,0,0,1,.47.408.7.7,0,0,1-.041.622l-.449.747,1.189,1.189.747-.449a.7.7,0,0,1,.622-.041.7.7,0,0,1,.408.47l.207.843h1.687l.207-.843a.7.7,0,0,1,.408-.47.7.7,0,0,1,.622.041ZM38.839,35.6A2.765,2.765,0,1,1,41.6,32.839,2.765,2.765,0,0,1,38.839,35.6Z" transform="translate(-9.264 -7.41)" fill="#0d2b51"/>
      <path id="Path_8569" data-name="Path 8569" d="M51.6,42.295a2.074,2.074,0,0,1-2.074,2.074H44v1.382h5.53a3.46,3.46,0,0,0,3.456-3.456V34H51.6Z" transform="translate(-12.351 -9.262)" fill="#0d2b51"/>
    </g>
  </g>
</svg>
