<svg id="Group_12315" data-name="Group 12315" xmlns="http://www.w3.org/2000/svg" width="94.376" height="94.376" viewBox="0 0 94.376 94.376">
  <circle id="Ellipse_192" data-name="Ellipse 192" cx="47.188" cy="47.188" r="47.188" fill="#fff"/>
  <g id="headphones_1_" data-name="headphones (1)" transform="translate(21.681 18.493)">
    <g id="Group_10409" data-name="Group 10409" transform="translate(6.779 23.728)">
      <g id="Group_10408" data-name="Group 10408">
        <path id="Path_5432" data-name="Path 5432" d="M96.085,210A5.09,5.09,0,0,0,91,215.085v13.785a5.085,5.085,0,1,0,10.169,0V215.085A5.09,5.09,0,0,0,96.085,210Z" transform="translate(-91 -210)" fill="#0d2b51"/>
      </g>
    </g>
    <g id="Group_10411" data-name="Group 10411" transform="translate(0 27.385)">
      <g id="Group_10410" data-name="Group 10410">
        <path id="Path_5433" data-name="Path 5433" d="M34.39,243.794a8.408,8.408,0,0,1,.144-1.428A5.074,5.074,0,0,0,31,247.183v7.005a5.074,5.074,0,0,0,3.534,4.817,8.409,8.409,0,0,1-.144-1.428Z" transform="translate(-31 -242.366)" fill="#00d563"/>
      </g>
    </g>
    <g id="Group_10413" data-name="Group 10413" transform="translate(20.338 23.728)">
      <g id="Group_10412" data-name="Group 10412">
        <path id="Path_5434" data-name="Path 5434" d="M229.643,210a5.09,5.09,0,0,0-5.085,5.085v13.785a5.09,5.09,0,0,0,5.085,5.085,5.015,5.015,0,0,0,1.457-.238,5.074,5.074,0,0,1-4.846,3.628h-5.4a5.085,5.085,0,1,0,0,3.39h5.4a8.484,8.484,0,0,0,8.474-8.474V215.085A5.09,5.09,0,0,0,229.643,210Z" transform="translate(-211 -210)" fill="#0d2b51"/>
      </g>
    </g>
    <g id="Group_10415" data-name="Group 10415" transform="translate(47.312 27.385)">
      <g id="Group_10414" data-name="Group 10414">
        <path id="Path_5435" data-name="Path 5435" d="M449.722,242.366a8.411,8.411,0,0,1,.144,1.428v13.785a8.411,8.411,0,0,1-.144,1.428,5.074,5.074,0,0,0,3.534-4.817v-7.005A5.074,5.074,0,0,0,449.722,242.366Z" transform="translate(-449.722 -242.366)" fill="#00d563"/>
      </g>
    </g>
    <g id="Group_10417" data-name="Group 10417">
      <g id="Group_10416" data-name="Group 10416">
        <path id="Path_5436" data-name="Path 5436" d="M56.423,0A25.451,25.451,0,0,0,31,25.423v.043a8.392,8.392,0,0,1,3.467-1.574,22.007,22.007,0,0,1,43.911,0,8.4,8.4,0,0,1,3.467,1.574v-.043A25.451,25.451,0,0,0,56.423,0Z" transform="translate(-31)" fill="#00d563"/>
      </g>
    </g>
  </g>
</svg>
