<svg xmlns="http://www.w3.org/2000/svg" width="62.322" height="62.322" viewBox="0 0 62.322 62.322">
  <g id="Group_11299" data-name="Group 11299" transform="translate(-1420.49 -4052.964)">
    <circle id="Ellipse_200" data-name="Ellipse 200" cx="31.161" cy="31.161" r="31.161" transform="translate(1420.49 4052.964)" fill="#fff"/>
    <g id="web-development" transform="translate(1434.495 4067.036)">
      <path id="Path_6506" data-name="Path 6506" d="M34.312,9.042V4.016A3.019,3.019,0,0,0,31.3,1H3.016A3.019,3.019,0,0,0,0,4.016V9.042ZM23.187,5.021h6.031a1.005,1.005,0,1,1,0,2.01H23.187a1.005,1.005,0,1,1,0-2.01Zm-10.052,0A1.005,1.005,0,1,1,12.13,6.026,1.005,1.005,0,0,1,13.135,5.021Zm-4.021,0A1.005,1.005,0,1,1,8.109,6.026,1.005,1.005,0,0,1,9.114,5.021Zm-4.021,0A1.005,1.005,0,1,1,4.088,6.026,1.005,1.005,0,0,1,5.093,5.021Z" transform="translate(0 -1)" fill="#00d563"/>
      <path id="Path_6507" data-name="Path 6507" d="M0,151v21.11a3.019,3.019,0,0,0,3.016,3.016H31.3a3.019,3.019,0,0,0,3.016-3.016V151Zm11.753,14.294a1.005,1.005,0,1,1-1.256,1.57L5.47,162.842a1.006,1.006,0,0,1,0-1.57l5.026-4.021a1.005,1.005,0,1,1,1.256,1.57l-4.045,3.236Zm9.343-9.877L15.064,169.49a1.005,1.005,0,1,1-1.848-.792l6.031-14.073a1.005,1.005,0,1,1,1.848.792Zm7.746,7.426-5.026,4.021a1.005,1.005,0,1,1-1.256-1.57l4.045-3.236-4.045-3.236a1.005,1.005,0,1,1,1.256-1.57l5.026,4.021A1.006,1.006,0,0,1,28.842,162.843Z" transform="translate(0 -140.948)" fill="#0d2b51"/>
    </g>
  </g>
</svg>
