<svg xmlns="http://www.w3.org/2000/svg" width="62.322" height="62.322" viewBox="0 0 62.322 62.322">
  <g id="Group_11298" data-name="Group 11298" transform="translate(-1384.786 -4063.964)">
    <circle id="Ellipse_200" data-name="Ellipse 200" cx="31.161" cy="31.161" r="31.161" transform="translate(1384.786 4063.964)" fill="#fff"/>
    <g id="Layer_2" data-name="Layer 2" transform="translate(1399.497 4074.163)">
      <path id="Path_6499" data-name="Path 6499" d="M40.574,45.176,36.06,48.552l-8.281,1.413-1.79-.891.551-.551,6.991-.587a2.311,2.311,0,0,0,2.1-2.318A2.347,2.347,0,0,0,33.6,43.293L24.135,42a.725.725,0,0,0-.254,0l-6.441,1.449H11.724a.724.724,0,0,0-.724.724v7.969a.725.725,0,0,0,.724.725h4.231l8.578,2.9c.319.1-.355.123,12.671-2.173a.674.674,0,0,0,.355-.167L43.2,48.408a2.079,2.079,0,0,0-2.63-3.217Z" transform="translate(-11 -13.87)" fill="#00d563"/>
      <path id="Path_6500" data-name="Path 6500" d="M41.576,10.69a.906.906,0,0,0,0,1.8Z" transform="translate(-19.197 -5.249)" fill="#fff"/>
      <path id="Path_6501" data-name="Path 6501" d="M44.767,16.088a.906.906,0,0,0-.877-.9v1.8A.906.906,0,0,0,44.767,16.088Z" transform="translate(-20.061 -6.488)" fill="#fff"/>
      <path id="Path_6502" data-name="Path 6502" d="M38.614,20.568A8.694,8.694,0,1,0,30,10.722a10.143,10.143,0,0,1,7.245,9.716h0A8.521,8.521,0,0,0,38.614,20.568Zm-2.326-7.788h1.449a.906.906,0,0,0,.877.906V11.874a2.355,2.355,0,0,1,0-4.7V6.027h1.449V7.172a2.355,2.355,0,0,1,2.326,2.347H40.94a.906.906,0,0,0-.877-.9v1.811a2.355,2.355,0,0,1,0,4.7v1.145H38.614V15.134a2.355,2.355,0,0,1-2.326-2.355Z" transform="translate(-16.235 -3.179)" fill="#0d2b51"/>
      <path id="Path_6503" data-name="Path 6503" d="M23.79,24.408a.9.9,0,0,0,.877.906v-1.8A.9.9,0,0,0,23.79,24.408Z" transform="translate(-14.524 -8.78)" fill="#fff"/>
      <path id="Path_6504" data-name="Path 6504" d="M27,29.8A.9.9,0,0,0,27,28Z" transform="translate(-15.408 -10.017)" fill="#fff"/>
      <path id="Path_6505" data-name="Path 6505" d="M22.694,15a8.694,8.694,0,1,0,8.694,8.694A8.694,8.694,0,0,0,22.694,15Zm3.05,10.324a2.355,2.355,0,0,1-2.326,2.355v1.137H21.969V27.679a2.355,2.355,0,0,1-2.326-2.355h1.449a.9.9,0,0,0,.877.9v-1.8a2.355,2.355,0,1,1,0-4.709V18.572h1.449v1.137a2.355,2.355,0,0,1,2.326,2.355H24.3a.9.9,0,0,0-.877-.9v1.8A2.355,2.355,0,0,1,25.744,25.324Z" transform="translate(-11.827 -6.436)" fill="#0d2b51"/>
    </g>
  </g>
</svg>
