<svg xmlns="http://www.w3.org/2000/svg" width="72.167" height="72.167" viewBox="0 0 72.167 72.167">
  <g id="Group_12474" data-name="Group 12474" transform="translate(-148 -7580.211)">
    <g id="Path_8452" data-name="Path 8452" transform="translate(148 7580.211)" fill="none">
      <path d="M36.083,0A36.083,36.083,0,1,1,0,36.083,36.083,36.083,0,0,1,36.083,0Z" stroke="none"/>
      <path d="M 36.08349609375 1.999992370605469 C 31.48137283325195 1.999992370605469 27.01797485351562 2.900886535644531 22.8172721862793 4.677627563476562 C 18.75887298583984 6.394187927246094 15.11363983154297 8.852008819580078 11.98281860351562 11.98281860351562 C 8.852008819580078 15.11363983154297 6.394187927246094 18.75887298583984 4.677627563476562 22.8172721862793 C 2.900886535644531 27.01797485351562 1.999992370605469 31.48137283325195 1.999992370605469 36.08349609375 C 1.999992370605469 40.68561553955078 2.900886535644531 45.14901733398438 4.677627563476562 49.34971618652344 C 6.394187927246094 53.40811920166016 8.852008819580078 57.05335235595703 11.98281860351562 60.18417358398438 C 15.11363983154297 63.31498718261719 18.75887298583984 65.77280426025391 22.8172721862793 67.48936462402344 C 27.01797485351562 69.26610565185547 31.48137283325195 70.16699981689453 36.08349609375 70.16699981689453 C 40.68561553955078 70.16699981689453 45.14901733398438 69.26610565185547 49.34971618652344 67.48936462402344 C 53.40811920166016 65.77280426025391 57.05335235595703 63.31498718261719 60.18417358398438 60.18417358398438 C 63.31498718261719 57.05335235595703 65.77280426025391 53.40811920166016 67.48936462402344 49.34971618652344 C 69.26610565185547 45.14901733398438 70.16699981689453 40.68561553955078 70.16699981689453 36.08349609375 C 70.16699981689453 31.48137283325195 69.26610565185547 27.01797485351562 67.48936462402344 22.8172721862793 C 65.77280426025391 18.75887298583984 63.31498718261719 15.11363983154297 60.18417358398438 11.98281860351562 C 57.05335235595703 8.852008819580078 53.40811920166016 6.394187927246094 49.34971618652344 4.677627563476562 C 45.14901733398438 2.900886535644531 40.68561553955078 1.999992370605469 36.08349609375 1.999992370605469 M 36.08349609375 -7.62939453125e-06 C 56.01186370849609 -7.62939453125e-06 72.16699981689453 16.15512847900391 72.16699981689453 36.08349609375 C 72.16699981689453 56.01186370849609 56.01186370849609 72.16699981689453 36.08349609375 72.16699981689453 C 16.15512847900391 72.16699981689453 -7.62939453125e-06 56.01186370849609 -7.62939453125e-06 36.08349609375 C -7.62939453125e-06 16.15512847900391 16.15512847900391 -7.62939453125e-06 36.08349609375 -7.62939453125e-06 Z" stroke="none" fill="#0fa554"/>
    </g>
    <g id="consulting" transform="translate(164.197 7597.651)">
      <path id="Path_8561" data-name="Path 8561" d="M31.617,0H8.157A8.167,8.167,0,0,0,0,8.157V22.139a8.169,8.169,0,0,0,6.991,8.074v7.075h2.18L15.778,30.3H31.617a8.167,8.167,0,0,0,8.157-8.157V8.157A8.167,8.167,0,0,0,31.617,0ZM28.043,15.148c0,.221-.011.439-.031.654l2.7,1.561-3.5,6.056L24.49,21.842a8.167,8.167,0,0,1-1.107.643v3.15H16.391v-3.15a8.167,8.167,0,0,1-1.107-.643L12.553,23.42l-3.5-6.056,2.7-1.561c-.019-.215-.031-.433-.031-.654s.011-.439.031-.654l-2.7-1.561,3.5-6.056,2.731,1.577a8.167,8.167,0,0,1,1.107-.643V4.661h6.991v3.15a8.167,8.167,0,0,1,1.107.643l2.731-1.577,3.5,6.056-2.7,1.561c.019.215.031.433.031.654Zm0,0" fill="#00d563"/>
      <path id="Path_8562" data-name="Path 8562" d="M171.7,93.069l-2.1,1.212-.626-.534a5.823,5.823,0,0,0-1.817-1.056l-.774-.276V90h-2.33v2.416l-.774.276a5.819,5.819,0,0,0-1.817,1.056l-.626.534-2.1-1.212-1.165,2.019,2.078,1.2-.149.809a5.191,5.191,0,0,0,0,2.119l.149.809-2.078,1.2,1.165,2.019,2.1-1.212.626.534a5.776,5.776,0,0,0,1.816,1.054l.775.276v2.418h2.33V103.9l.774-.276a5.819,5.819,0,0,0,1.817-1.056l.626-.534,2.1,1.212,1.165-2.019-2.078-1.2.149-.809a5.192,5.192,0,0,0,0-2.119l-.149-.809,2.078-1.2Zm-6.48,8.583a3.5,3.5,0,1,1,3.5-3.5A3.5,3.5,0,0,1,165.22,101.652Zm0,0" transform="translate(-145.334 -83.009)" fill="#0d2b51"/>
      <path id="Path_8563" data-name="Path 8563" d="M242.165,180a1.165,1.165,0,1,0,1.165,1.165A1.166,1.166,0,0,0,242.165,180Zm0,0" transform="translate(-222.279 -166.017)" fill="#0d2b51"/>
    </g>
  </g>
</svg>
