<svg xmlns="http://www.w3.org/2000/svg" width="94.376" height="94.377" viewBox="0 0 94.376 94.377">
  <g id="Group_12312" data-name="Group 12312" transform="translate(-252.187 -9962.27)">
    <circle id="Ellipse_192" data-name="Ellipse 192" cx="47.188" cy="47.188" r="47.188" transform="translate(252.187 9962.27)" fill="#fff"/>
    <g id="vector_1_" data-name="vector (1)" transform="translate(272.701 9982.783)">
      <g id="Group_10452" data-name="Group 10452">
        <g id="Group_10451" data-name="Group 10451">
          <path id="Path_5447" data-name="Path 5447" d="M51.785,0H45.429a1.562,1.562,0,0,0-1.563,1.563V3.126H31.075a4.661,4.661,0,0,0-8.8,0H9.482V1.563A1.562,1.562,0,0,0,7.919,0H1.563A1.562,1.562,0,0,0,0,1.563V7.815A1.562,1.562,0,0,0,1.563,9.378H7.919A1.562,1.562,0,0,0,9.482,7.815V6.231H15.9A20.389,20.389,0,0,0,6.473,22.237a4.675,4.675,0,1,0,3.12.071A17.151,17.151,0,0,1,22.524,6.825a4.649,4.649,0,0,0,8.3,0A17.151,17.151,0,0,1,43.756,22.308a4.7,4.7,0,1,0,3.12-.071A20.351,20.351,0,0,0,37.448,6.252h6.419V7.815a1.562,1.562,0,0,0,1.563,1.563h6.356a1.562,1.562,0,0,0,1.563-1.563V1.563A1.562,1.562,0,0,0,51.785,0Z" fill="#00d563"/>
        </g>
      </g>
      <g id="Group_10454" data-name="Group 10454" transform="translate(15.973 46.992)">
        <g id="Group_10453" data-name="Group 10453">
          <path id="Path_5448" data-name="Path 5448" d="M174.629,455.417A6.356,6.356,0,0,0,168.684,451h-9.378a6.356,6.356,0,0,0-5.944,4.417,1.54,1.54,0,0,0,1.52,1.939h18.226A1.54,1.54,0,0,0,174.629,455.417Z" transform="translate(-153.294 -451)" fill="#0d2b51"/>
        </g>
      </g>
      <g id="Group_10456" data-name="Group 10456" transform="translate(12.608 13.697)">
        <g id="Group_10455" data-name="Group 10455">
          <path id="Path_5449" data-name="Path 5449" d="M148.87,149.82l-12.241-18.362v14.828a4.689,4.689,0,1,1-3.126,0V131.459L121.262,149.82a1.563,1.563,0,0,0,.2,1.972,19.736,19.736,0,0,1,5.411,10.531,9.307,9.307,0,0,1,3.509-.7h9.378a9.309,9.309,0,0,1,3.509.695,19.734,19.734,0,0,1,5.411-10.53A1.563,1.563,0,0,0,148.87,149.82Z" transform="translate(-121 -131.459)" fill="#0d2b51"/>
        </g>
      </g>
      <g id="Group_10458" data-name="Group 10458" transform="translate(25.111 31.363)">
        <g id="Group_10457" data-name="Group 10457">
          <path id="Path_5450" data-name="Path 5450" d="M242.563,301a1.563,1.563,0,1,0,1.563,1.563A1.564,1.564,0,0,0,242.563,301Z" transform="translate(-241 -301)" fill="#0f4dc1"/>
        </g>
      </g>
    </g>
  </g>
</svg>
