<svg xmlns="http://www.w3.org/2000/svg" width="74" height="74" viewBox="0 0 74 74">
  <g id="Group_11797" data-name="Group 11797" transform="translate(534 -3560)">
    <g id="Ellipse_9" data-name="Ellipse 9" transform="translate(-534 3560)" fill="#fff" stroke="#00d563" stroke-width="2">
      <circle cx="37" cy="37" r="37" stroke="none"/>
      <circle cx="37" cy="37" r="36" fill="none"/>
    </g>
    <g id="hand-holding-up-a-gear" transform="translate(-524.86 3577.25)">
      <g id="Group_11794" data-name="Group 11794" transform="translate(9.061 0)">
        <path id="Path_7341" data-name="Path 7341" d="M44.163,216.771c-2.223.137-5.146,2.358-7.966,3.635-3.456,1.565-8.835.307-8.836.307.83-.39,4.2-1.193,4.881-1.491,3.61-1.589,3.3-4.9,1.585-4.87-2.272.036-3.6.594-8.137,1.212-3.435.467-7.5.3-9.447,1.04-2.751,1.051-7.182,8.121-7.182,8.121l6.851,6.639s4.241-4.177,6.3-4.177c4.7,0,4.892-.063,9.259-.3a9.592,9.592,0,0,0,3.307-.534c5.66-1.914,11.737-7.01,11.849-7.621C46.89,217.31,45.337,216.7,44.163,216.771Z" transform="translate(-9.061 -191.864)" fill="#00d563"/>
        <path id="Path_7342" data-name="Path 7342" d="M118.152,10.538l1.094.193.03,0a8.493,8.493,0,0,0,.351,1.918.213.213,0,0,0-.039.019l-.963.555a.716.716,0,0,0-.262.98l1.286,2.229a.72.72,0,0,0,.622.36.7.7,0,0,0,.358-.1l.963-.555a.414.414,0,0,0,.062-.045,8.655,8.655,0,0,0,1.481,1.235.58.58,0,0,0-.035.074l-.38,1.046a.717.717,0,0,0,.023.548.725.725,0,0,0,.405.371l2.418.88a.73.73,0,0,0,.246.042.716.716,0,0,0,.674-.473l.38-1.044a.675.675,0,0,0,.024-.088,8.391,8.391,0,0,0,1.921,0,.764.764,0,0,0,.024.088l.38,1.045a.72.72,0,0,0,.371.406.735.735,0,0,0,.3.067.757.757,0,0,0,.245-.042l2.418-.881a.718.718,0,0,0,.429-.92l-.38-1.046a.573.573,0,0,0-.035-.074,8.656,8.656,0,0,0,1.481-1.235.466.466,0,0,0,.062.045l.963.555a.7.7,0,0,0,.359.1.764.764,0,0,0,.186-.025.719.719,0,0,0,.435-.335l1.287-2.229a.717.717,0,0,0-.263-.98l-.963-.555a.283.283,0,0,0-.039-.019,8.563,8.563,0,0,0,.35-1.918l.03,0,1.095-.193a.717.717,0,0,0,.583-.831l-.448-2.533a.709.709,0,0,0-.295-.463.719.719,0,0,0-.536-.12l-1.093.193a8.643,8.643,0,0,0-.979-1.713l.707-.842a.717.717,0,0,0-.089-1.01l-1.971-1.655a.717.717,0,0,0-1.011.088l-.693.826a8.4,8.4,0,0,0-1.871-.689V.717A.718.718,0,0,0,129.138,0h-2.573a.719.719,0,0,0-.718.717V1.789a8.414,8.414,0,0,0-1.871.689l-.693-.826a.716.716,0,0,0-1.01-.088L120.3,3.218a.717.717,0,0,0-.088,1.01l.707.841a8.672,8.672,0,0,0-.979,1.713l-1.092-.193a.718.718,0,0,0-.536.12.71.71,0,0,0-.3.463l-.446,2.533A.715.715,0,0,0,118.152,10.538Zm4.062-.324a5.637,5.637,0,1,1,5.637,5.637A5.643,5.643,0,0,1,122.214,10.214Z" transform="translate(-106.177 0)" fill="#0d2b51"/>
      </g>
    </g>
  </g>
</svg>
