<svg xmlns="http://www.w3.org/2000/svg" width="71" height="71" viewBox="0 0 71 71">
  <g id="Group_12433" data-name="Group 12433" transform="translate(-148 -2642)">
    <g id="Ellipse_6" data-name="Ellipse 6" transform="translate(148 2642)" fill="#fff" stroke="#00d563" stroke-width="2">
      <circle cx="35.5" cy="35.5" r="35.5" stroke="none"/>
      <circle cx="35.5" cy="35.5" r="34.5" fill="none"/>
    </g>
    <g id="email" transform="translate(164.019 2658.946)">
      <path id="Path_8500" data-name="Path 8500" d="M1,224.336v19.229l12.362-9.615Z" transform="translate(0 -208.077)" fill="#0d2b51"/>
      <path id="Path_8501" data-name="Path 8501" d="M446,155.31v5.912l3.651-2.839Z" transform="translate(-412.749 -144.054)" fill="#0d2b51"/>
      <path id="Path_8502" data-name="Path 8502" d="M210.849.256a1.087,1.087,0,0,0-1.4,0l-2.883,2.426h7.165Z" transform="translate(-190.668 0)" fill="#0d2b51"/>
      <path id="Path_8503" data-name="Path 8503" d="M19.278,155.31l-3.651,3.073,3.651,2.839Z" transform="translate(-13.567 -144.054)" fill="#0d2b51"/>
      <path id="Path_8504" data-name="Path 8504" d="M34.191,372,21.146,382.146H55.187L42.142,372Z" transform="translate(-18.686 -345.04)" fill="#0d2b51"/>
      <path id="Path_8505" data-name="Path 8505" d="M340.432,233.95l12.362,9.615V224.335Z" transform="translate(-314.832 -208.076)" fill="#0d2b51"/>
      <path id="Path_8506" data-name="Path 8506" d="M229.261,179.364a2.056,2.056,0,0,0-1.794,2.292c0,1.459.89,2.438,1.721,2.438.875,0,1.593-1.024,1.644-2.311v-.273c-.039-1.27-.675-2.146-1.572-2.146Z" transform="translate(-210.054 -166.365)" fill="#0d2b51"/>
      <path id="Path_8507" data-name="Path 8507" d="M111.571,86.93,119.191,81V68.087A1.087,1.087,0,0,0,118.1,67H97.087A1.087,1.087,0,0,0,96,68.087V81l7.62,5.927Zm-11.639-7.4a7.972,7.972,0,0,1,15.343-4.325l.01.034a7.156,7.156,0,0,1-.4,4.738,3.677,3.677,0,0,1-3.408,2.417,2.488,2.488,0,0,1-1.767-.756,2.784,2.784,0,0,1-.311-.374,3.384,3.384,0,0,1-2.152.782,3.658,3.658,0,0,1-2.8-1.4,5.055,5.055,0,0,1-1.092-3.213,4.712,4.712,0,0,1,1.162-3.179,3.81,3.81,0,0,1,2.806-1.288,3.439,3.439,0,0,1,1.611.395A1.087,1.087,0,0,1,110,72.479h.006a1.087,1.087,0,0,1,1.082,1.092l-.03,6.04a.708.708,0,0,0,.2.495.351.351,0,0,0,.226.115,1.526,1.526,0,0,0,1.388-1.047,5.061,5.061,0,0,0,.321-3.357,5.8,5.8,0,0,0-11.153,3.16,5.833,5.833,0,0,0,5.447,4.329,1.087,1.087,0,0,1-.03,2.174h-.031a8.036,8.036,0,0,1-4.683-1.685,7.908,7.908,0,0,1-2.807-4.264Z" transform="translate(-88.115 -62.144)" fill="#00d563"/>
    </g>
  </g>
</svg>
