<svg xmlns="http://www.w3.org/2000/svg" width="71" height="71" viewBox="0 0 71 71">
  <g id="Group_12434" data-name="Group 12434" transform="translate(-148 -2795.9)">
    <g id="Ellipse_6" data-name="Ellipse 6" transform="translate(148 2795.9)" fill="#fff" stroke="#00d563" stroke-width="2">
      <circle cx="35.5" cy="35.5" r="35.5" stroke="none"/>
      <circle cx="35.5" cy="35.5" r="34.5" fill="none"/>
    </g>
    <g id="internet_1_" data-name="internet (1)" transform="translate(165.73 2815.087)">
      <path id="Path_8512" data-name="Path 8512" d="M0,355.453a3.273,3.273,0,0,0,3.27,3.27h13.46v2.082H10.018a1.041,1.041,0,0,0,0,2.083h15.5a1.041,1.041,0,0,0,0-2.083H18.811v-2.082h13.46a3.273,3.273,0,0,0,3.27-3.27V354.9H0Zm0,0" transform="translate(0 -330.262)" fill="#00d563"/>
      <path id="Path_8513" data-name="Path 8513" d="M244.488,183.6a10.5,10.5,0,0,0,.859-4.155h-1.718A10.5,10.5,0,0,0,244.488,183.6Zm0,0" transform="translate(-226.717 -166.993)" fill="#00d563"/>
      <path id="Path_8514" data-name="Path 8514" d="M179.32,97.816H181.7a15.952,15.952,0,0,1,.6-3.852A5.442,5.442,0,0,0,179.32,97.816Zm0,0" transform="translate(-166.873 -87.442)" fill="#00d563"/>
      <path id="Path_8515" data-name="Path 8515" d="M244.528,90.422a10.422,10.422,0,0,0-.856,4.1h1.712a10.422,10.422,0,0,0-.856-4.1Zm0,0" transform="translate(-226.758 -84.145)" fill="#00d563"/>
      <path id="Path_8516" data-name="Path 8516" d="M179.32,179.449a5.442,5.442,0,0,0,2.964,3.842,16.206,16.206,0,0,1-.584-3.842Zm0,0" transform="translate(-166.873 -166.992)" fill="#00d563"/>
      <path id="Path_8517" data-name="Path 8517" d="M289.684,93.965a15.952,15.952,0,0,1,.6,3.852h2.383A5.443,5.443,0,0,0,289.684,93.965Zm0,0" transform="translate(-269.576 -87.442)" fill="#00d563"/>
      <path id="Path_8518" data-name="Path 8518" d="M289.98,183.291a5.443,5.443,0,0,0,2.964-3.842h-2.38A16.212,16.212,0,0,1,289.98,183.291Zm0,0" transform="translate(-269.851 -166.992)" fill="#00d563"/>
      <path id="Path_8519" data-name="Path 8519" d="M32.271,0h-29A3.273,3.273,0,0,0,0,3.27V22.553H35.541V3.27A3.273,3.273,0,0,0,32.271,0ZM17.77,18.921a7.506,7.506,0,1,1,7.506-7.506A7.514,7.514,0,0,1,17.77,18.921Zm0,0" transform="translate(0)" fill="#0d2b51"/>
    </g>
  </g>
</svg>
