<svg xmlns="http://www.w3.org/2000/svg" width="80.551" height="80.551" viewBox="0 0 80.551 80.551">
  <g id="Group_12427" data-name="Group 12427" transform="translate(-684.521 6902.659)">
    <g id="Path_7362" data-name="Path 7362" transform="translate(684.521 -6902.659)" fill="#fff">
      <path d="M 40.27536010742188 79.55072784423828 C 34.97278213500977 79.55072784423828 29.82934951782227 78.51242828369141 24.9879264831543 76.46468353271484 C 20.31116104125977 74.48657989501953 16.11079406738281 71.654541015625 12.503493309021 68.0472412109375 C 8.896182060241699 64.43994140625 6.064148902893066 60.23955917358398 4.08604907989502 55.56279373168945 C 2.038293361663818 50.72138214111328 1.000004529953003 45.57793807983398 1.000004529953003 40.27536010742188 C 1.000004529953003 34.97278213500977 2.038293361663818 29.82934951782227 4.08604907989502 24.9879264831543 C 6.064148902893066 20.31116104125977 8.896182060241699 16.11079406738281 12.503493309021 12.503493309021 C 16.11079406738281 8.896182060241699 20.31116104125977 6.064148902893066 24.9879264831543 4.08604907989502 C 29.82934951782227 2.038293361663818 34.97278213500977 1.000004529953003 40.27536010742188 1.000004529953003 C 45.57793807983398 1.000004529953003 50.72138214111328 2.038293361663818 55.56279373168945 4.08604907989502 C 60.23955917358398 6.064148902893066 64.43994140625 8.896182060241699 68.0472412109375 12.503493309021 C 71.654541015625 16.11079406738281 74.48657989501953 20.31116104125977 76.46468353271484 24.9879264831543 C 78.51242828369141 29.82934951782227 79.55072784423828 34.97278213500977 79.55072784423828 40.27536010742188 C 79.55072784423828 45.57793807983398 78.51242828369141 50.72138214111328 76.46468353271484 55.56279373168945 C 74.48657989501953 60.23955917358398 71.654541015625 64.43992614746094 68.0472412109375 68.0472412109375 C 64.43992614746094 71.654541015625 60.23955917358398 74.48657989501953 55.56279373168945 76.46468353271484 C 50.72138214111328 78.51242828369141 45.57793807983398 79.55072784423828 40.27536010742188 79.55072784423828 Z" stroke="none"/>
      <path d="M 40.27536010742188 1.999992370605469 C 35.10733795166016 1.999992370605469 30.0949592590332 3.011711120605469 25.37747955322266 5.007041931152344 C 20.81991195678711 6.934722900390625 16.72638320922852 9.694808959960938 13.21059417724609 13.21059417724609 C 9.694808959960938 16.72638320922852 6.934722900390625 20.81991195678711 5.007041931152344 25.37747955322266 C 3.011711120605469 30.0949592590332 1.999992370605469 35.10733795166016 1.999992370605469 40.27536010742188 C 1.999992370605469 45.44338226318359 3.011711120605469 50.45574951171875 5.007041931152344 55.17324066162109 C 6.934722900390625 59.73080444335938 9.694808959960938 63.82433700561523 13.21059417724609 67.34012603759766 C 16.72638320922852 70.85591125488281 20.81991195678711 73.61598205566406 25.37747955322266 75.54366302490234 C 30.0949592590332 77.53899383544922 35.10733795166016 78.55071258544922 40.27536010742188 78.55071258544922 C 45.44338226318359 78.55071258544922 50.45574951171875 77.53899383544922 55.17324066162109 75.54366302490234 C 59.73080444335938 73.61598205566406 63.82433700561523 70.85591125488281 67.34012603759766 67.34012603759766 C 70.85591125488281 63.82433700561523 73.61598205566406 59.73080444335938 75.54366302490234 55.17324066162109 C 77.53899383544922 50.45574951171875 78.55071258544922 45.44338226318359 78.55071258544922 40.27536010742188 C 78.55071258544922 35.10733795166016 77.53899383544922 30.0949592590332 75.54366302490234 25.37747955322266 C 73.61598205566406 20.81991195678711 70.85591125488281 16.72638320922852 67.34012603759766 13.21059417724609 C 63.82433700561523 9.694808959960938 59.73080444335938 6.934722900390625 55.17324066162109 5.007041931152344 C 50.45574951171875 3.011711120605469 45.44338226318359 1.999992370605469 40.27536010742188 1.999992370605469 M 40.27536010742188 -7.62939453125e-06 C 62.51882171630859 -7.62939453125e-06 80.55071258544922 18.03189086914062 80.55071258544922 40.27536010742188 C 80.55071258544922 62.51882171630859 62.51882171630859 80.55071258544922 40.27536010742188 80.55071258544922 C 18.03189086914062 80.55071258544922 -7.62939453125e-06 62.51882171630859 -7.62939453125e-06 40.27536010742188 C -7.62939453125e-06 18.03189086914062 18.03189086914062 -7.62939453125e-06 40.27536010742188 -7.62939453125e-06 Z" stroke="none" fill="#00d563"/>
    </g>
    <g id="programming" transform="translate(704.075 -6920.826)">
      <path id="Path_8481" data-name="Path 8481" d="M0,177.711v23.736H41.443V177.711Zm24.908,7.816,1.717-1.717,5.743,5.743-5.743,5.743-1.717-1.717,4.026-4.026Zm-3.645-4.008,2.37.527L20.18,197.586l-2.37-.527Zm-6.445,2.291,1.717,1.717-4.026,4.026,4.026,4.026-1.717,1.717-5.743-5.743Z" transform="translate(0 -125.605)" fill="#00d563"/>
      <path id="Path_8482" data-name="Path 8482" d="M41.443,49.678V41.044H0v8.634ZM8.332,46.558H5.9V44.13H8.332Zm5.075,0H10.979V44.13h2.428Zm5.075,0H16.054V44.13h2.428Z" fill="#0d2b51"/>
    </g>
  </g>
</svg>
