<svg xmlns="http://www.w3.org/2000/svg" width="74" height="74" viewBox="0 0 74 74">
  <g id="Group_12503" data-name="Group 12503" transform="translate(-596 -5307)">
    <g id="Ellipse_9" data-name="Ellipse 9" transform="translate(596 5307)" fill="#f7f8f7" stroke="#00d563" stroke-width="2">
      <circle cx="37" cy="37" r="37" stroke="none"/>
      <circle cx="37" cy="37" r="36" fill="none"/>
    </g>
    <g id="hosting" transform="translate(609.921 5320.921)">
      <path id="Path_8588" data-name="Path 8588" d="M16.246,51.758a.743.743,0,0,0,.137-.861,2.093,2.093,0,0,1-.06-1.781c.031-.073.062-.147.091-.222a2.1,2.1,0,0,1,1.306-1.226.742.742,0,0,0,.512-.707v-.69a.742.742,0,0,0-.511-.707,2.093,2.093,0,0,1-1.307-1.226c-.029-.074-.06-.148-.092-.222a2.093,2.093,0,0,1,.061-1.779.743.743,0,0,0-.138-.862l-.487-.488a.742.742,0,0,0-.861-.137,2.093,2.093,0,0,1-1.781.06c-.073-.031-.147-.062-.222-.091a2.1,2.1,0,0,1-1.226-1.306A.742.742,0,0,0,10.961,39h-.69a.742.742,0,0,0-.707.511,2.093,2.093,0,0,1-1.226,1.307c-.074.029-.148.06-.222.092a2.09,2.09,0,0,1-1.779-.061.745.745,0,0,0-.862.137l-.488.488a.743.743,0,0,0-.137.861,2.093,2.093,0,0,1,.06,1.781c-.031.073-.062.147-.091.222a2.094,2.094,0,0,1-1.307,1.226A.742.742,0,0,0,3,46.271v.69a.742.742,0,0,0,.511.707,2.093,2.093,0,0,1,1.307,1.226c.029.074.06.148.092.222A2.092,2.092,0,0,1,4.849,50.9a.743.743,0,0,0,.138.862l.487.488a.743.743,0,0,0,.861.137,2.127,2.127,0,0,1,.96-.231,2.063,2.063,0,0,1,.821.17c.073.031.147.062.222.091a2.1,2.1,0,0,1,1.226,1.306.742.742,0,0,0,.707.512h.69a.742.742,0,0,0,.707-.511,2.093,2.093,0,0,1,1.226-1.307c.074-.029.148-.06.222-.092a2.092,2.092,0,0,1,1.779.061.742.742,0,0,0,.862-.138Zm-5.63-.987a4.154,4.154,0,1,1,4.154-4.154,4.154,4.154,0,0,1-4.154,4.154Z" transform="translate(0 -11.074)" fill="#00d563"/>
      <path id="Path_8589" data-name="Path 8589" d="M24.078,44.192a.711.711,0,0,0-.026.6c.039.089.075.179.111.271,0,0,.006.007.008.011h5.367v2.77H26.076v.345a2.121,2.121,0,0,1-.895,1.732H41.308V43H24.29A2.122,2.122,0,0,1,24.078,44.192Zm12.384.886h2.77v2.77h-2.77Z" transform="translate(-6.459 -12.305)" fill="#0d2b51"/>
      <path id="Path_8590" data-name="Path 8590" d="M21,36.939a2.117,2.117,0,0,1,1.274.607l.377.377H40.387V31H21Zm11.77-3.862h5.539v2.77H32.77Zm-9.693,0h2.77v2.77h-2.77Z" transform="translate(-5.537 -8.613)" fill="#0d2b51"/>
      <path id="Path_8591" data-name="Path 8591" d="M39.694,19h-18a.693.693,0,0,0-.692.692v6.231H40.387V19.692A.693.693,0,0,0,39.694,19ZM28.616,23.847H23.077v-2.77h5.539Zm9.693,0H35.54v-2.77h2.77Z" transform="translate(-5.537 -4.922)" fill="#0d2b51"/>
      <path id="Path_8592" data-name="Path 8592" d="M23.185,55.194a2.125,2.125,0,0,1-.393,2.465l-.489.488a2.123,2.123,0,0,1-1.209.6.691.691,0,0,0,.627.407h18a.693.693,0,0,0,.692-.692V55H23.134a.743.743,0,0,0,.051.194Zm14.461,1.191h1.385V57.77H37.646Zm-2.77,0h1.385V57.77H34.876Zm-2.77,0h1.385V57.77H32.107Z" transform="translate(-5.566 -15.996)" fill="#0d2b51"/>
      <path id="Path_8593" data-name="Path 8593" d="M39,11.309a4.131,4.131,0,0,0-1.377.24L36.9,11.8l-.181-.744A6.917,6.917,0,0,0,25.287,7.624l-.663.616-.422-.8A8.3,8.3,0,0,0,8.768,9.4l-.131.557-.682-.03c-.037,0-.072-.006-.109-.006a4.847,4.847,0,0,0,0,9.693h6.231V14.77a2.08,2.08,0,0,1,2.077-2.077h18a2.08,2.08,0,0,1,2.077,2.077v4.847H39a4.154,4.154,0,1,0,0-8.309ZM16.848,5.77a5.508,5.508,0,0,0-5.4,4.308l-1.351-.307a6.886,6.886,0,0,1,6.753-5.386Zm2.54.616a5.455,5.455,0,0,0-1.309-.478l.307-1.351a6.939,6.939,0,0,1,1.637.6Z" transform="translate(0 0)" fill="#00d563"/>
      <ellipse id="Ellipse_312" data-name="Ellipse 312" cx="1.472" cy="1.349" rx="1.472" ry="1.349" transform="translate(9.132 34.15)" fill="#0d2b51"/>
    </g>
  </g>
</svg>
