<svg xmlns="http://www.w3.org/2000/svg" width="71" height="71" viewBox="0 0 71 71">
  <g id="Group_12430" data-name="Group 12430" transform="translate(-148 -2116)">
    <g id="Ellipse_5" data-name="Ellipse 5" transform="translate(148 2116)" fill="#fff" stroke="#00d563" stroke-width="2">
      <circle cx="35.5" cy="35.5" r="35.5" stroke="none"/>
      <circle cx="35.5" cy="35.5" r="34.5" fill="none"/>
    </g>
    <g id="app-development" transform="translate(158.11 2128.818)">
      <path id="Path_8491" data-name="Path 8491" d="M31.076,34.539v1.015H12.238V8.491H31.076v7.745a1.844,1.844,0,0,1,.788-.17h1.413V5.01A2.543,2.543,0,0,0,30.761,2.5H12.547a2.517,2.517,0,0,0-2.51,2.51V40.354a2.513,2.513,0,0,0,2.51,2.51H30.761a2.522,2.522,0,0,0,2.516-2.51V34.791H32.022a1.845,1.845,0,0,1-.946-.252ZM20.052,4.865h3.2a.631.631,0,1,1,0,1.261h-3.2a.631.631,0,1,1,0-1.261Zm3.69,35.211H19.566a.631.631,0,1,1,0-1.261h4.175a.631.631,0,0,1,0,1.261Z" transform="translate(0 0)" fill="#00d563"/>
      <path id="Path_8492" data-name="Path 8492" d="M34.141,23.714a.63.63,0,0,0,.892,0l2.636-2.66a.63.63,0,0,0,0-.888L35.033,17.5a.631.631,0,1,0-.9.888l2.2,2.217-2.2,2.217a.63.63,0,0,0,0,.892Z" transform="translate(-8.594 -5.323)" fill="#0d2b51"/>
      <path id="Path_8493" data-name="Path 8493" d="M20.016,17.5a.629.629,0,0,0-.892,0l-2.635,2.66a.63.63,0,0,0,0,.888l2.635,2.66a.631.631,0,1,0,.9-.888l-2.2-2.217,2.2-2.217A.63.63,0,0,0,20.016,17.5Z" transform="translate(-2.252 -5.323)" fill="#0d2b51"/>
      <path id="Path_8494" data-name="Path 8494" d="M27.657,14.594l-3.7,9.316a.631.631,0,0,0,1.172.466l3.7-9.316a.631.631,0,1,0-1.172-.466Z" transform="translate(-4.985 -4.202)" fill="#0d2b51"/>
      <path id="Path_8495" data-name="Path 8495" d="M48.292,32.3l-1.385-.157a6.086,6.086,0,0,0-.708-1.683V30.46l.819-1.155a.661.661,0,0,0-.072-.85l-.992-.992a.661.661,0,0,0-.881-.049l-1.087.868a6.107,6.107,0,0,0-1.694-.685l-.236-1.4a.662.662,0,0,0-.652-.552H40a.661.661,0,0,0-.657.587l-.157,1.391a6.262,6.262,0,0,0-1.683.708l-1.16-.824a.662.662,0,0,0-.852.072l-.988.991a.661.661,0,0,0-.049.879l.87,1.093a5.955,5.955,0,0,0-.691,1.694l-1.4.236a.662.662,0,0,0-.552.652v1.4a.662.662,0,0,0,.587.657l1.38.156a6.207,6.207,0,0,0,.713,1.688v.006l-.818,1.149a.661.661,0,0,0,.071.851l.992.992a.661.661,0,0,0,.88.05L37.58,39.2a6.143,6.143,0,0,0,1.688.685l.236,1.4a.661.661,0,0,0,.652.552h1.407a.662.662,0,0,0,.657-.587l.157-1.391a5.925,5.925,0,0,0,1.683-.708l1.159.824a.662.662,0,0,0,.852-.072l.988-.992a.661.661,0,0,0,.049-.879l-.865-1.088a6.214,6.214,0,0,0,.685-1.7l1.4-.236a.661.661,0,0,0,.552-.652v-1.4a.661.661,0,0,0-.587-.657Zm-7.509,4.156A2.719,2.719,0,1,1,43.5,33.742,2.719,2.719,0,0,1,40.784,36.461Z" transform="translate(-8.137 -8.314)" fill="#0d2b51"/>
    </g>
  </g>
</svg>
