<svg xmlns="http://www.w3.org/2000/svg" width="74" height="74" viewBox="0 0 74 74">
  <g id="Group_12502" data-name="Group 12502" transform="translate(-168.044 -5307)">
    <g id="Path_7371" data-name="Path 7371" transform="translate(168.044 5307)" fill="#f7f8f7">
      <path d="M 37 73 C 32.13959121704102 73 27.42510032653809 72.04830932617188 22.98748016357422 70.17134857177734 C 18.70075035095215 68.35820770263672 14.85066032409668 65.76233673095703 11.54415988922119 62.45584106445312 C 8.23766040802002 59.14934158325195 5.64178991317749 55.29925155639648 3.828649997711182 51.01251983642578 C 1.951689958572388 46.57490158081055 1 41.86040878295898 1 37 C 1 32.13959121704102 1.951689958572388 27.42510032653809 3.828649997711182 22.98748016357422 C 5.64178991317749 18.70075035095215 8.23766040802002 14.85066032409668 11.54415988922119 11.54415988922119 C 14.85066032409668 8.23766040802002 18.70075035095215 5.64178991317749 22.98748016357422 3.828649997711182 C 27.42510032653809 1.951689958572388 32.13959121704102 1 37 1 C 41.86040878295898 1 46.57490158081055 1.951689958572388 51.01251983642578 3.828649997711182 C 55.29925155639648 5.64178991317749 59.14934158325195 8.23766040802002 62.45584106445312 11.54415988922119 C 65.76233673095703 14.85066032409668 68.35820770263672 18.70075035095215 70.17134857177734 22.98748016357422 C 72.04830932617188 27.42510032653809 73 32.13959121704102 73 37 C 73 41.86040878295898 72.04830932617188 46.57490158081055 70.17134857177734 51.01251983642578 C 68.35820770263672 55.29925155639648 65.76233673095703 59.14934158325195 62.45584106445312 62.45584106445312 C 59.14934158325195 65.76233673095703 55.29925155639648 68.35820770263672 51.01251983642578 70.17134857177734 C 46.57490158081055 72.04830932617188 41.86040878295898 73 37 73 Z" stroke="none"/>
      <path d="M 37 2 C 32.27414321899414 2 27.69072341918945 2.925125122070312 23.37703323364258 4.749656677246094 C 19.20949935913086 6.512367248535156 15.46624374389648 9.036277770996094 12.25126647949219 12.25126647949219 C 9.036277770996094 15.46624374389648 6.512367248535156 19.20949935913086 4.749656677246094 23.37703323364258 C 2.925125122070312 27.69072341918945 2 32.27414321899414 2 37 C 2 41.72585678100586 2.925125122070312 46.30928039550781 4.749656677246094 50.62296676635742 C 6.512367248535156 54.79050064086914 9.036277770996094 58.53375625610352 12.25126647949219 61.74873352050781 C 15.46624374389648 64.96372222900391 19.20949935913086 67.48763275146484 23.37703323364258 69.25034332275391 C 27.69072341918945 71.07487487792969 32.27414321899414 72 37 72 C 41.72585678100586 72 46.30928039550781 71.07487487792969 50.62296676635742 69.25034332275391 C 54.79050064086914 67.48763275146484 58.53375625610352 64.96372222900391 61.74873352050781 61.74873352050781 C 64.96372222900391 58.53375625610352 67.48763275146484 54.79050064086914 69.25034332275391 50.62296676635742 C 71.07487487792969 46.30928039550781 72 41.72585678100586 72 37 C 72 32.27414321899414 71.07487487792969 27.69072341918945 69.25034332275391 23.37703323364258 C 67.48763275146484 19.20949935913086 64.96372222900391 15.46624374389648 61.74873352050781 12.25126647949219 C 58.53375625610352 9.036277770996094 54.79050064086914 6.512367248535156 50.62296676635742 4.749656677246094 C 46.30928039550781 2.925125122070312 41.72585678100586 2 37 2 M 37 0 C 57.43453216552734 0 74 16.56546783447266 74 37 C 74 57.43453216552734 57.43453216552734 74 37 74 C 16.56546783447266 74 0 57.43453216552734 0 37 C 0 16.56546783447266 16.56546783447266 0 37 0 Z" stroke="none" fill="#00d563"/>
    </g>
    <g id="vector" transform="translate(186.412 5325.368)">
      <g id="Group_12495" data-name="Group 12495" transform="translate(0 0)">
        <g id="Group_12494" data-name="Group 12494">
          <path id="Path_8584" data-name="Path 8584" d="M36.172,0h-4.44a1.091,1.091,0,0,0-1.092,1.092V2.183H21.706a3.256,3.256,0,0,0-6.148,0H6.623V1.092A1.091,1.091,0,0,0,5.531,0H1.092A1.091,1.091,0,0,0,0,1.092V5.459A1.091,1.091,0,0,0,1.092,6.55h4.44A1.091,1.091,0,0,0,6.623,5.459V4.352h4.484a14.242,14.242,0,0,0-6.586,11.18,3.266,3.266,0,1,0,2.179.049A11.98,11.98,0,0,1,15.733,4.767a3.248,3.248,0,0,0,5.8,0,11.98,11.98,0,0,1,9.033,10.815,3.285,3.285,0,1,0,2.179-.049A14.215,14.215,0,0,0,26.157,4.367h4.484V5.459A1.091,1.091,0,0,0,31.733,6.55h4.44a1.091,1.091,0,0,0,1.092-1.092V1.092A1.091,1.091,0,0,0,36.172,0Z" transform="translate(0 0)" fill="#0d2b51"/>
        </g>
      </g>
      <g id="Group_12497" data-name="Group 12497" transform="translate(11.157 32.824)">
        <g id="Group_12496" data-name="Group 12496">
          <path id="Path_8585" data-name="Path 8585" d="M168.2,454.086A4.44,4.44,0,0,0,164.044,451h-6.55a4.44,4.44,0,0,0-4.152,3.086,1.076,1.076,0,0,0,1.062,1.354h12.731A1.076,1.076,0,0,0,168.2,454.086Z" transform="translate(-153.294 -451)" fill="#00d563"/>
        </g>
      </g>
      <g id="Group_12499" data-name="Group 12499" transform="translate(8.807 9.568)">
        <g id="Group_12498" data-name="Group 12498">
          <path id="Path_8586" data-name="Path 8586" d="M140.467,144.285l-8.55-12.826v10.357a3.275,3.275,0,1,1-2.183,0V131.459l-8.55,12.826a1.091,1.091,0,0,0,.136,1.377,13.786,13.786,0,0,1,3.78,7.356,6.5,6.5,0,0,1,2.451-.486h6.55a6.5,6.5,0,0,1,2.451.485,13.785,13.785,0,0,1,3.78-7.356A1.091,1.091,0,0,0,140.467,144.285Z" transform="translate(-121 -131.459)" fill="#00d563"/>
        </g>
      </g>
      <g id="Group_12501" data-name="Group 12501" transform="translate(17.54 21.907)">
        <g id="Group_12500" data-name="Group 12500">
          <path id="Path_8587" data-name="Path 8587" d="M242.092,301a1.092,1.092,0,1,0,1.092,1.092A1.092,1.092,0,0,0,242.092,301Z" transform="translate(-241 -301)" fill="#0d2b51"/>
        </g>
      </g>
    </g>
  </g>
</svg>
