<svg xmlns="http://www.w3.org/2000/svg" width="71" height="71" viewBox="0 0 71 71">
  <g id="Group_12431" data-name="Group 12431" transform="translate(-148 -2306.208)">
    <g id="Group_12216" data-name="Group 12216" transform="translate(-1621 209.208)">
      <g id="Ellipse_5" data-name="Ellipse 5" transform="translate(1769 2097)" fill="#fff" stroke="#00d563" stroke-width="2">
        <circle cx="35.5" cy="35.5" r="35.5" stroke="none"/>
        <circle cx="35.5" cy="35.5" r="34.5" fill="none"/>
      </g>
    </g>
    <g id="content-management" transform="translate(163.135 2321.343)">
      <path id="Path_8496" data-name="Path 8496" d="M394.213,14.324V5.9a3.585,3.585,0,0,0-2.4-3.38v13h1.208A1.193,1.193,0,0,0,394.213,14.324Z" transform="translate(-360.642 -2.316)" fill="#0d2b51"/>
      <path id="Path_8497" data-name="Path 8497" d="M251.3,244.462a1.193,1.193,0,0,0-1.163-1.166l-2.36-.06a1.1,1.1,0,0,1-.965-1.586l1.032-2.123a1.193,1.193,0,0,0-.5-1.569l-3.652-2a1.193,1.193,0,0,0-1.591.424l-1.232,2.014a1.1,1.1,0,0,1-1.856.042l-1.322-1.955a1.193,1.193,0,0,0-1.609-.351l-3.557,2.163a1.193,1.193,0,0,0-.428,1.59l1.128,2.074a1.1,1.1,0,0,1-.891,1.629l-2.355.168a1.193,1.193,0,0,0-1.108,1.218l.1,4.162a1.193,1.193,0,0,0,1.163,1.166l2.36.06a1.1,1.1,0,0,1,.965,1.586l-1.032,2.123a1.193,1.193,0,0,0,.5,1.568l3.652,2a1.193,1.193,0,0,0,1.591-.424l1.232-2.014a1.1,1.1,0,0,1,1.856-.042l1.322,1.955a1.193,1.193,0,0,0,1.609.351l3.557-2.163a1.193,1.193,0,0,0,.428-1.59l-1.128-2.074a1.1,1.1,0,0,1,.891-1.629l2.355-.168a1.193,1.193,0,0,0,1.108-1.218Zm-9.306,5.4a3.58,3.58,0,1,1,1.2-4.919A3.578,3.578,0,0,1,241.991,249.858Z" transform="translate(-210.662 -217.054)" fill="#0d2b51"/>
      <path id="Path_8498" data-name="Path 8498" d="M91,91h14.319v7.16H91Z" transform="translate(-83.761 -83.761)" fill="#0d2b51"/>
      <path id="Path_8499" data-name="Path 8499" d="M19.611,35.973l.046-.1H6.042a1.193,1.193,0,1,1,0-2.387H16.215a5.9,5.9,0,0,1-.322-2.387H12.012a1.193,1.193,0,1,1,0-2.387h3.826a4.713,4.713,0,0,1,.339-2.387H13.2a1.193,1.193,0,1,1,0-2.387h6.121a3.568,3.568,0,0,1-.351-2.387H6.046a1.193,1.193,0,1,1,0-2.387H20.674l3.5-2.131a3.578,3.578,0,0,1,4.6.762V0H3.58A3.584,3.584,0,0,0,0,3.58V39.537A1.193,1.193,0,0,0,1.193,40.73H21.206l-.094-.052a3.576,3.576,0,0,1-1.5-4.705ZM4.853,6.046A1.193,1.193,0,0,1,6.046,4.853H22.752a1.193,1.193,0,0,1,1.193,1.193v9.546a1.193,1.193,0,0,1-1.193,1.193H6.046a1.193,1.193,0,0,1-1.193-1.193Zm1.189,17.9H9.626a1.193,1.193,0,1,1,0,2.387H6.042a1.193,1.193,0,1,1,0-2.387Zm0,4.773H8.437a1.193,1.193,0,0,1,0,2.387H6.042a1.193,1.193,0,0,1,0-2.387Z" fill="#00d563"/>
    </g>
  </g>
</svg>
