<svg xmlns="http://www.w3.org/2000/svg" width="74" height="74" viewBox="0 0 74 74">
  <g id="Group_12493" data-name="Group 12493" transform="translate(-1026 -4846)">
    <g id="Ellipse_9" data-name="Ellipse 9" transform="translate(1026 4846)" fill="#f7f8f7" stroke="#00d563" stroke-width="2">
      <circle cx="37" cy="37" r="37" stroke="none"/>
      <circle cx="37" cy="37" r="36" fill="none"/>
    </g>
    <g id="search-engine-optimization_1_" data-name="search-engine-optimization (1)" transform="translate(1042.421 4833.914)">
      <path id="Path_8581" data-name="Path 8581" d="M191.852,31a10.852,10.852,0,0,0-1.206,21.637v2.479h-2.412V67.174h7.235V55.116h-2.412V52.637A10.852,10.852,0,0,0,191.852,31Z" transform="translate(-166.45)" fill="#00d563"/>
      <path id="Path_8582" data-name="Path 8582" d="M0,91v12.058H13.589a13.251,13.251,0,0,1,0-12.058Zm4.9,7.235H2.492V95.823H4.9Zm4.823,0H7.315V95.823H9.727Z" transform="translate(0 -55.177)" fill="#0d2b51"/>
      <path id="Path_8583" data-name="Path 8583" d="M462.95,91a13.251,13.251,0,0,1,0,12.058h3.943V91Z" transform="translate(-425.735 -55.177)" fill="#0d2b51"/>
    </g>
  </g>
</svg>
