<svg xmlns="http://www.w3.org/2000/svg" width="62.322" height="62.322" viewBox="0 0 62.322 62.322">
  <g id="Group_11300" data-name="Group 11300" transform="translate(-1397 -4048.625)">
    <circle id="Ellipse_200" data-name="Ellipse 200" cx="31.161" cy="31.161" r="31.161" transform="translate(1397 4048.625)" fill="#fff"/>
    <g id="success" transform="translate(1413.938 4063.701)">
      <path id="Path_6508" data-name="Path 6508" d="M187.257,208.248h-6.147a1,1,0,0,0-1,1V226.2a.333.333,0,0,0,.333.333h7.481a.333.333,0,0,0,.333-.333V209.248A1,1,0,0,0,187.257,208.248Z" transform="translate(-169.962 -194.363)" fill="#0d2b51"/>
      <path id="Path_6509" data-name="Path 6509" d="M339.536,298.5h-6.147a1,1,0,0,0-1,1v10.935a.333.333,0,0,0,.333.333h7.48a.333.333,0,0,0,.333-.333V299.5A1,1,0,0,0,339.536,298.5Z" transform="translate(-312.089 -278.596)" fill="#0d2b51"/>
      <path id="Path_6510" data-name="Path 6510" d="M35.066,364.758H28.919a1,1,0,0,0-1,1v6.517a.333.333,0,0,0,.333.333h7.48a.333.333,0,0,0,.333-.333v-6.517A1,1,0,0,0,35.066,364.758Z" transform="translate(-27.919 -340.438)" fill="#0d2b51"/>
      <path id="Path_6511" data-name="Path 6511" d="M177.473,3.078l-2.208-.62a.667.667,0,0,1-.376-.275L173.647.3a.667.667,0,0,0-1.113,0l-1.241,1.883a.666.666,0,0,1-.376.275l-2.208.62a.667.667,0,0,0-.334,1.066L169.8,5.87a.666.666,0,0,1,.151.458l-.119,2.3a.667.667,0,0,0,.912.654l2.1-.837a.667.667,0,0,1,.493,0l2.1.837a.667.667,0,0,0,.912-.654l-.119-2.3a.667.667,0,0,1,.151-.458l1.422-1.727A.667.667,0,0,0,177.473,3.078Z" transform="translate(-158.867 0)" fill="#00d563"/>
      <path id="Path_6512" data-name="Path 6512" d="M65.484,102.736l2.4-1.132a1,1,0,1,0-.855-1.808l-2.4,1.132a1,1,0,1,0,.855,1.808Z" transform="translate(-61.646 -93.052)" fill="#0d2b51"/>
      <path id="Path_6513" data-name="Path 6513" d="M353.944,11.076l2.346-1.116a1,1,0,1,0-.859-1.806L353.085,9.27a1,1,0,1,0,.859,1.806Z" transform="translate(-330.871 -7.52)" fill="#0d2b51"/>
      <path id="Path_6514" data-name="Path 6514" d="M64.629,9.962l2.4,1.132a1,1,0,0,0,.855-1.808l-2.4-1.132a1,1,0,1,0-.855,1.808Z" transform="translate(-61.646 -7.52)" fill="#0d2b51"/>
      <path id="Path_6515" data-name="Path 6515" d="M353.083,101.846l2.346,1.116a1,1,0,1,0,.859-1.806l-2.346-1.116a1,1,0,1,0-.859,1.806Z" transform="translate(-330.87 -93.279)" fill="#0d2b51"/>
    </g>
  </g>
</svg>
