<svg xmlns="http://www.w3.org/2000/svg" width="74" height="74" viewBox="0 0 74 74">
  <g id="Group_11795" data-name="Group 11795" transform="translate(438 -3690)">
    <g id="Ellipse_4" data-name="Ellipse 4" transform="translate(-438 3690)" fill="#fff" stroke="#00d563" stroke-width="2">
      <circle cx="37" cy="37" r="37" stroke="none"/>
      <circle cx="37" cy="37" r="36" fill="none"/>
    </g>
    <g id="expert" transform="translate(-421.276 3706.147)">
      <path id="Path_7338" data-name="Path 7338" d="M40.052,347.059l-5.244-.746-2.314-4.576-2.313,4.576-3.8.54-3.8-.54-2.314-4.576-2.314,4.576-3.8.54-3.8-.54-2.314-4.576-2.314,4.576L.5,347.059l3.8,3.613-.889,4.935,4.65-2.262,4.65,2.26-.889-4.933,2.348-2.234,2.348,2.234-.889,4.935,4.65-2.262,4.65,2.26-.889-4.933,2.348-2.234,2.348,2.234-.889,4.935,4.65-2.262,4.65,2.26-.889-4.933Zm0,0" transform="translate(0 -313.901)" fill="#0d2b51"/>
      <path id="Path_7339" data-name="Path 7339" d="M155.383,158.549a8.553,8.553,0,0,0-17.106,0v6.109h17.106Zm0,0" transform="translate(-126.554 -137.778)" fill="#00d563"/>
      <path id="Path_7340" data-name="Path 7340" d="M180.5,6.109a6.109,6.109,0,1,0-6.109,6.109A6.116,6.116,0,0,0,180.5,6.109Zm0,0" transform="translate(-154.11 0)" fill="#00d563"/>
    </g>
  </g>
</svg>
