<svg id="help" xmlns="http://www.w3.org/2000/svg" width="33.306" height="33.306" viewBox="0 0 33.306 33.306">
  <path id="Path_6940" data-name="Path 6940" d="M219.062,208.3a10.8,10.8,0,0,0-5.922-9.616,14.685,14.685,0,0,1-14.46,14.46,10.769,10.769,0,0,0,15.094,4.426l5.241,1.45-1.45-5.241a10.727,10.727,0,0,0,1.5-5.478Zm0,0" transform="translate(-185.756 -185.756)" fill="#0d2b51"/>
  <path id="Path_6941" data-name="Path 6941" d="M25.435,12.717A12.717,12.717,0,1,0,1.763,19.182L.047,25.388l6.207-1.716A12.72,12.72,0,0,0,25.435,12.717ZM10.766,9.758H8.814a3.9,3.9,0,1,1,6.537,2.88l-1.658,1.518v1.522H11.742V13.3l2.292-2.1a1.931,1.931,0,0,0,.635-1.441,1.952,1.952,0,1,0-3.9,0Zm.976,7.871h1.952V19.58H11.742Zm0,0" fill="#11ae5a"/>
</svg>
