<svg xmlns="http://www.w3.org/2000/svg" width="55.653" height="69.236" viewBox="0 0 55.653 69.236">
  <g id="innovation" transform="translate(-60.68 -13.021)">
    <path id="Path_8538" data-name="Path 8538" d="M246,20.735a1,1,0,0,0,1-1V14.018a1,1,0,0,0-1.995,0v5.719A1,1,0,0,0,246,20.735Z" transform="translate(-158.061 0)" fill="#0d2b51"/>
    <path id="Path_8539" data-name="Path 8539" d="M406.353,96.955l-5.2,4.521a1,1,0,0,0,1.308,1.505l5.2-4.521a1,1,0,0,0-1.308-1.505Z" transform="translate(-291.672 -71.766)"/>
    <path id="Path_8540" data-name="Path 8540" d="M62.365,90.235a1,1,0,1,0-1.376,1.444l4.925,4.7a1,1,0,1,0,1.376-1.444Z" transform="translate(0 -65.978)" fill="#0d2b51"/>
    <path id="Path_8541" data-name="Path 8541" d="M225.865,163.114c-.034.071-.068.145-.1.218a28.2,28.2,0,0,1,4.2,1.646,28.187,28.187,0,0,1,4.2-1.645c-1.035-2.265-2.332-3.683-3.637-4a3.481,3.481,0,0,1-4.66,3.785Z" transform="translate(-141.565 -125.464)" fill="#0d2b51"/>
    <circle id="Ellipse_306" data-name="Ellipse 306" cx="1.487" cy="1.487" r="1.487" transform="translate(84.031 32.901)" fill="#0d2b51"/>
    <path id="Path_8542" data-name="Path 8542" d="M273.335,203.009q.544.373,1.07.763a24.887,24.887,0,0,0-.832-3.273,24.361,24.361,0,0,0-2.7.962C271.7,201.938,272.523,202.453,273.335,203.009Z" transform="translate(-180.249 -160.769)" fill="#0d2b51"/>
    <path id="Path_8543" data-name="Path 8543" d="M215.9,309.52c-.364-.249-.719-.5-1.07-.764a24.92,24.92,0,0,0,.832,3.274,24.389,24.389,0,0,0,2.7-.962C217.534,310.591,216.711,310.076,215.9,309.52Z" transform="translate(-132.189 -253.603)" fill="#0d2b51"/>
    <path id="Path_8544" data-name="Path 8544" d="M218.348,201.458a24.366,24.366,0,0,0-2.7-.963,24.841,24.841,0,0,0-.831,3.275q.527-.39,1.072-.765C216.7,202.45,217.522,201.935,218.348,201.458Z" transform="translate(-132.177 -160.765)" fill="#0d2b51"/>
    <path id="Path_8545" data-name="Path 8545" d="M225.772,334.9c1.183,2.59,2.71,4.073,4.2,4.073s3.015-1.483,4.2-4.073a28.207,28.207,0,0,1-4.2-1.645A28.2,28.2,0,0,1,225.772,334.9Z" transform="translate(-141.572 -274.612)" fill="#0d2b51"/>
    <path id="Path_8546" data-name="Path 8546" d="M165.92,204.352a31.6,31.6,0,0,1,2.709-2.657,29.354,29.354,0,0,1,1.173-5.566c-2.8-.487-4.889-.068-5.73,1.16-.853,1.245-.472,3.383,1.046,5.866C165.36,203.553,165.63,203.953,165.92,204.352Z" transform="translate(-88.279 -156.852)" fill="#0d2b51"/>
    <circle id="Ellipse_307" data-name="Ellipse 307" cx="1.487" cy="1.487" r="1.487" transform="translate(73.805 51.264)" fill="#0d2b51"/>
    <rect id="Rectangle_1523" data-name="Rectangle 1523" width="17.096" height="5.271" transform="translate(79.958 76.985)" fill="#0d2b51"/>
    <path id="Path_8547" data-name="Path 8547" d="M188.612,258.257q.578.661,1.227,1.312c-.015-.435-.025-.873-.025-1.314s.008-.874.023-1.306Q189.189,257.6,188.612,258.257Z" transform="translate(-109.706 -209.176)"/>
    <path id="Path_8548" data-name="Path 8548" d="M166.9,284.384a3.48,3.48,0,0,1-3.256,4.55,2.73,2.73,0,0,0,.444,1.488c.842,1.228,2.929,1.647,5.733,1.159a29.239,29.239,0,0,1-1.174-5.56Q167.726,285.219,166.9,284.384Z" transform="translate(-88.296 -232.703)" fill="#0d2b51"/>
    <path id="Path_8549" data-name="Path 8549" d="M306.452,283.239a3.46,3.46,0,0,1,.313-1.439c-.652.682-1.356,1.353-2.106,2.006a29.249,29.249,0,0,1-1.174,5.56c2.8.488,4.891.069,5.733-1.159a2.736,2.736,0,0,0,.443-1.5A3.485,3.485,0,0,1,306.452,283.239Z" transform="translate(-208.214 -230.487)" fill="#0d2b51"/>
    <path id="Path_8550" data-name="Path 8550" d="M314.487,258.248q-.578-.66-1.227-1.31c.014.433.025.869.025,1.308s-.01.879-.025,1.314Q313.91,258.91,314.487,258.248Z" transform="translate(-216.596 -209.167)"/>
    <path id="Path_8551" data-name="Path 8551" d="M303.485,196.13a29.244,29.244,0,0,1,1.175,5.565,31.528,31.528,0,0,1,2.709,2.657c.29-.4.56-.8.8-1.2,1.518-2.483,1.9-4.621,1.046-5.866C308.376,196.061,306.289,195.641,303.485,196.13Z" transform="translate(-208.214 -156.851)" fill="#0d2b51"/>
    <path id="Path_8552" data-name="Path 8552" d="M270.874,311.067a24.382,24.382,0,0,0,2.7.962,24.9,24.9,0,0,0,.832-3.274c-.351.259-.706.514-1.07.764C272.523,310.076,271.7,310.591,270.874,311.067Z" transform="translate(-180.249 -253.603)" fill="#0d2b51"/>
    <circle id="Ellipse_308" data-name="Ellipse 308" cx="1.487" cy="1.487" r="1.487" transform="translate(100.233 51.264)" fill="#0d2b51"/>
    <circle id="Ellipse_309" data-name="Ellipse 309" cx="1.487" cy="1.487" r="1.487" transform="translate(86.911 47.592)" fill="#0d2b51"/>
    <path id="Path_8553" data-name="Path 8553" d="M220.9,216.773a34.7,34.7,0,0,0-3.56-2.142,34.7,34.7,0,0,0-3.56,2.142c-.906.621-1.772,1.278-2.589,1.958-.1,1.05-.147,2.133-.147,3.234s.051,2.186.149,3.239c.813.676,1.678,1.33,2.588,1.954a34.7,34.7,0,0,0,3.56,2.142,34.676,34.676,0,0,0,3.56-2.142c.91-.623,1.774-1.278,2.588-1.954.1-1.053.148-2.137.148-3.239s-.051-2.184-.148-3.236C222.676,218.051,221.81,217.394,220.9,216.773Zm-3.56,8.674a3.482,3.482,0,1,1,3.481-3.482A3.482,3.482,0,0,1,217.344,225.447Z" transform="translate(-128.946 -172.887)" fill="#0d2b51"/>
    <path id="Path_8554" data-name="Path 8554" d="M130.35,115.453a21.193,21.193,0,0,0-14.294,5.882,18.847,18.847,0,0,0-.571,27.354,18.228,18.228,0,0,1,5.418,13H117.45a1,1,0,1,0,0,1.995h26.505a1,1,0,0,0,0-1.995h-3.727a17.664,17.664,0,0,1,5.51-12.91,19.455,19.455,0,0,0,5.688-13.589,19.139,19.139,0,0,0-5.817-13.691A21.1,21.1,0,0,0,130.35,115.453Zm12.566,21.8a3.48,3.48,0,0,1,2.72,6.361,4.827,4.827,0,0,1-.789,3.07c-1,1.466-2.829,2.226-5.255,2.226a14.582,14.582,0,0,1-2.595-.251c-.079-.014-.159-.032-.238-.048-.032.074-.063.151-.1.224-1.548,3.455-3.7,5.358-6.067,5.358s-4.519-1.9-6.067-5.358c-.033-.073-.063-.149-.1-.224-.079.016-.16.033-.238.048a14.585,14.585,0,0,1-2.595.251c-2.426,0-4.25-.76-5.255-2.226a4.94,4.94,0,0,1-.778-3.2,3.48,3.48,0,0,1,2.745-6.283c.071-.1.142-.192.216-.288a20.682,20.682,0,0,1-1.194-1.736c-1.975-3.23-2.326-6.083-.989-8.034s4.125-2.652,7.85-1.975c.078.014.157.032.236.047q.217-.5.455-.97a3.479,3.479,0,0,1,5.191-4.578,4.33,4.33,0,0,1,.518-.033c2.365,0,4.519,1.9,6.067,5.358.033.073.063.149.1.224.079-.016.16-.033.238-.048,3.725-.677,6.513.025,7.85,1.975s.986,4.8-.989,8.034a20.663,20.663,0,0,1-1.193,1.735c.086.113.168.225.251.339Z" transform="translate(-42.196 -87.837)" fill="#00d563"/>
  </g>
</svg>
