<svg xmlns="http://www.w3.org/2000/svg" width="56.003" height="56.003" viewBox="0 0 56.003 56.003">
  <g id="process" transform="translate(0 -0.004)">
    <path id="Path_8239" data-name="Path 8239" d="M3.095,21.936a1.64,1.64,0,0,0,1.256-.008l4.908-2.071a1.641,1.641,0,0,0-1.276-3.023l-1.2.507a23.517,23.517,0,0,1,44.3,3.576,1.641,1.641,0,0,0,3.177-.822,26.8,26.8,0,0,0-50.548-3.91L3.153,14.87A1.641,1.641,0,1,0,.13,16.146L2.2,21.054a1.64,1.64,0,0,0,.894.882Z" transform="translate(0)" fill="#0d2b51"/>
    <path id="Path_8240" data-name="Path 8240" d="M69.683,313.263l-2.071-4.907a1.641,1.641,0,0,0-2.15-.874l-4.908,2.071a1.641,1.641,0,0,0,1.276,3.023L63.2,312a23.517,23.517,0,0,1-44.47-3.17,1.641,1.641,0,0,0-3.177.822,26.8,26.8,0,0,0,50.619,3.745l.483,1.146a1.641,1.641,0,1,0,3.023-1.276Z" transform="translate(-13.809 -273.73)" fill="#0d2b51"/>
    <circle id="Ellipse_256" data-name="Ellipse 256" cx="1.947" cy="1.947" r="1.947" transform="translate(25.961 25.965)" fill="#0d2b51"/>
    <path id="Path_8241" data-name="Path 8241" d="M128.465,119.388a4.1,4.1,0,0,0,0-8.2h-.307a13.437,13.437,0,0,0-.87-2.1l.217-.217a4.1,4.1,0,0,0-5.8-5.8l-.217.217a13.46,13.46,0,0,0-2.1-.87v-.307a4.1,4.1,0,1,0-8.2,0v.307a13.447,13.447,0,0,0-2.1.87l-.217-.217a4.1,4.1,0,1,0-5.8,5.8l.217.217a13.43,13.43,0,0,0-.87,2.1H102.1a4.1,4.1,0,1,0,0,8.2h.307a13.444,13.444,0,0,0,.87,2.1l-.217.217a4.1,4.1,0,0,0,5.8,5.8l.217-.217a13.454,13.454,0,0,0,2.1.87v.307a4.1,4.1,0,1,0,8.2,0v-.307a13.437,13.437,0,0,0,2.1-.87l.217.217a4.1,4.1,0,0,0,5.8-5.8l-.217-.217a13.437,13.437,0,0,0,.87-2.1h.307Zm-13.18.82a4.922,4.922,0,1,1,4.922-4.922A4.928,4.928,0,0,1,115.284,120.208Z" transform="translate(-87.282 -87.281)" fill="#0fa554"/>
  </g>
</svg>
