<svg xmlns="http://www.w3.org/2000/svg" width="47.033" height="58.218" viewBox="0 0 47.033 58.218">
  <g id="question_1_" data-name="question (1)" transform="translate(-13.647 -5)">
    <path id="Path_8572" data-name="Path 8572" d="M57.461,38.6a28.091,28.091,0,0,0-5.947-3.861c-1.642-.818-2.859-1.288-2.882-1.3-2.8-.986-3.8-1.992-4.15-2.661l-.14-.4c-.04-.142-.074-.276-.107-.4l-.341-1.915-.009-.093A14.4,14.4,0,0,0,46.07,24.03l.069-.107a7.224,7.224,0,0,0,1.233-2.838c.586-1.644.367-2.36.186-2.647l-.074-.118.043-.131c.06-.178,1.436-4.393-.464-7.6l-.035-.085a6.671,6.671,0,0,0-4.2-4.311A11.564,11.564,0,0,0,37.338,5l-.174,0L36.99,5A11.568,11.568,0,0,0,31.5,6.188,6.679,6.679,0,0,0,27.3,10.5l-.033.085c-1.9,3.212-.524,7.426-.464,7.6l.043.131-.074.118c-.181.287-.4,1,.186,2.647a7.208,7.208,0,0,0,1.234,2.838l.07.107a14.419,14.419,0,0,0,2.185,3.937l-.009.093-.341,1.915c-.034.129-.067.262-.107.4l-.14.4c-.345.67-1.346,1.675-4.149,2.661-.024.01-1.24.479-2.884,1.3A28.13,28.13,0,0,0,16.867,38.6c-.039.029-3.5,2.646-3.2,9.6.019.505.058,1.027.122,1.576,0,.554.177,1,1.248,1.334A68.184,68.184,0,0,0,30.35,54.147l-.088-.034a4.3,4.3,0,0,1-2.437-2.084,4.165,4.165,0,0,1-.087-3.437l.013-.033.013-.032c1.609-3.985,5.034-6.179,9.643-6.179,5.6,0,9.506,3.367,9.506,8.188a8.038,8.038,0,0,1-.7,3.378,66.156,66.156,0,0,0,13.074-2.8c1.07-.332,1.248-.779,1.248-1.334.065-.549.1-1.07.122-1.576.3-6.96-3.163-9.575-3.2-9.6Z" fill="#00d563"/>
    <path id="Path_8573" data-name="Path 8573" d="M48.405,88.055H47.253c-1.412,0-1.859.446-1.859,1.834v.823c0,1.388.447,1.835,1.859,1.835h1.152c1.413,0,1.859-.446,1.859-1.835v-.823C50.264,88.5,49.816,88.055,48.405,88.055Z" transform="translate(-11.211 -29.33)" fill="#0d2b51"/>
    <path id="Path_8574" data-name="Path 8574" d="M46.72,67.83c-3.647,0-5.6,1.671-6.588,4.117-.259.682-.071,1.012.612,1.271L43,74.065a2.327,2.327,0,0,0,.259.072c.028.006.053.008.08.014a1.263,1.263,0,0,0,.14.016l.03,0c.012,0,.022-.006.034-.006a.589.589,0,0,0,.162-.03c.016-.005.033-.009.049-.016A.6.6,0,0,0,43.923,74c.011-.011.021-.025.031-.036a1.273,1.273,0,0,0,.127-.171c.014-.021.028-.045.041-.069a3.082,3.082,0,0,0,.15-.294c.611-1.364,1.175-2,2.423-2,1.106,0,1.648.565,1.648,1.341,0,1.552-1.294,1.882-2.495,2.611A3.9,3.9,0,0,0,43.9,79.169c0,.729.235.94.941.94h2.117c.707,0,.941-.211.941-.94a1.608,1.608,0,0,1,.9-1.3c1.411-.964,4.139-1.717,4.139-5.152,0-2.868-2.28-4.892-6.209-4.892Z" transform="translate(-9.313 -22.188)" fill="#0d2b51"/>
  </g>
</svg>
