<svg xmlns="http://www.w3.org/2000/svg" width="60.846" height="60.228" viewBox="0 0 60.846 60.228">
  <g id="settings-gears" transform="translate(-0.001 -4.737)">
    <path id="Path_8522" data-name="Path 8522" d="M4,26.721a14.814,14.814,0,0,0,1.325,3.146l-1.6,2.017a1.655,1.655,0,0,0,.124,2.193L6.6,36.832a1.648,1.648,0,0,0,2.193.124l2-1.586a14.559,14.559,0,0,0,3.27,1.384l.3,2.578a1.651,1.651,0,0,0,1.638,1.462h3.9a1.651,1.651,0,0,0,1.638-1.462l.287-2.487a14.727,14.727,0,0,0,3.505-1.416l1.939,1.534a1.655,1.655,0,0,0,2.193-.124l2.755-2.755a1.648,1.648,0,0,0,.124-2.193l-1.508-1.913a14.385,14.385,0,0,0,1.443-3.446l2.324-.268a1.651,1.651,0,0,0,1.462-1.638v-3.9A1.651,1.651,0,0,0,34.6,19.091l-2.291-.268a14.478,14.478,0,0,0-1.384-3.407l1.41-1.782a1.655,1.655,0,0,0-.124-2.193L29.465,8.693a1.648,1.648,0,0,0-2.193-.124l-1.73,1.371a14.527,14.527,0,0,0-3.583-1.5L21.7,6.2a1.651,1.651,0,0,0-1.638-1.462h-3.9A1.651,1.651,0,0,0,14.524,6.2l-.261,2.239a14.466,14.466,0,0,0-3.675,1.553l-1.8-1.423A1.655,1.655,0,0,0,6.6,8.693L3.846,11.447a1.648,1.648,0,0,0-.124,2.193l1.5,1.9a14.2,14.2,0,0,0-1.358,3.44l-2.4.274A1.651,1.651,0,0,0,0,20.892v3.9a1.651,1.651,0,0,0,1.462,1.638ZM18.114,16.179a6.442,6.442,0,1,1-6.442,6.442A6.452,6.452,0,0,1,18.114,16.179Z" fill="#0d2b51"/>
    <path id="Path_8523" data-name="Path 8523" d="M503.363,292.229l-2.056-1.736a1.626,1.626,0,0,0-2.167.059L498,291.615a11.738,11.738,0,0,0-3.029-.979l-.32-1.567a1.642,1.642,0,0,0-1.736-1.305l-2.683.228a1.634,1.634,0,0,0-1.495,1.573l-.052,1.593a11.771,11.771,0,0,0-2.892,1.521l-1.358-.9a1.631,1.631,0,0,0-2.147.307l-1.736,2.069a1.626,1.626,0,0,0,.059,2.167l1.188,1.266a12.163,12.163,0,0,0-.875,2.9l-1.7.346a1.641,1.641,0,0,0-1.305,1.736l.228,2.683a1.634,1.634,0,0,0,1.573,1.495l1.834.059a11.987,11.987,0,0,0,1.3,2.48l-1.025,1.547a1.631,1.631,0,0,0,.307,2.147l2.056,1.736a1.626,1.626,0,0,0,2.167-.059l1.345-1.26a11.787,11.787,0,0,0,2.761.9l.372,1.841a1.641,1.641,0,0,0,1.736,1.305l2.683-.228a1.634,1.634,0,0,0,1.495-1.573l.059-1.8a12.065,12.065,0,0,0,2.761-1.4l1.482.979a1.631,1.631,0,0,0,2.148-.307l1.736-2.056a1.627,1.627,0,0,0-.059-2.167l-1.195-1.266a11.752,11.752,0,0,0,.94-2.911l1.632-.333a1.641,1.641,0,0,0,1.305-1.736l-.228-2.683a1.635,1.635,0,0,0-1.573-1.495l-1.638-.052a11.856,11.856,0,0,0-1.364-2.689l.894-1.345A1.622,1.622,0,0,0,503.363,292.229Zm-10.111,15.509a5.273,5.273,0,1,1,4.811-5.7A5.274,5.274,0,0,1,493.252,307.738Z" transform="translate(-446.725 -264.548)" fill="#00d563"/>
    <path id="Path_8524" data-name="Path 8524" d="M183.779,568.244a1.631,1.631,0,0,0-1.462,1.606l-.02,1.651a1.627,1.627,0,0,0,1.423,1.638l1.214.157a9.419,9.419,0,0,0,.862,2.108l-.783.966a1.627,1.627,0,0,0,.1,2.167l1.155,1.181a1.63,1.63,0,0,0,2.167.15l.973-.751a9.533,9.533,0,0,0,2.167.946l.131,1.253a1.631,1.631,0,0,0,1.606,1.462l1.651.02a1.627,1.627,0,0,0,1.638-1.423l.15-1.188a9.8,9.8,0,0,0,2.35-.914l.914.738a1.628,1.628,0,0,0,2.167-.1l1.181-1.155a1.63,1.63,0,0,0,.15-2.167l-.7-.907a9.466,9.466,0,0,0,.992-2.285l1.084-.111a1.631,1.631,0,0,0,1.462-1.606l.02-1.651a1.627,1.627,0,0,0-1.423-1.638l-1.057-.137a9.832,9.832,0,0,0-.894-2.285l.659-.809a1.627,1.627,0,0,0-.1-2.167l-1.155-1.182a1.63,1.63,0,0,0-2.167-.15l-.79.607a9.6,9.6,0,0,0-2.376-1.031l-.1-1.025a1.631,1.631,0,0,0-1.606-1.462l-1.651-.02a1.627,1.627,0,0,0-1.638,1.423l-.131,1.018a9.86,9.86,0,0,0-2.461,1.005l-.816-.666a1.628,1.628,0,0,0-2.167.1l-1.188,1.162a1.63,1.63,0,0,0-.15,2.167l.7.9a9.555,9.555,0,0,0-.933,2.285Zm10.659-1.867a4.3,4.3,0,1,1-4.347,4.243A4.3,4.3,0,0,1,194.438,566.378Z" transform="translate(-170.397 -517.836)" fill="#00d563"/>
  </g>
</svg>
