<svg id="shuttle" xmlns="http://www.w3.org/2000/svg" width="21.536" height="21.536" viewBox="0 0 21.536 21.536">
  <path id="Path_5773" data-name="Path 5773" d="M5.478,138.268l-1.866.144a1.665,1.665,0,0,0-1.269.747L.192,142.413a1.153,1.153,0,0,0,.786,1.776l1.708.265A15.3,15.3,0,0,1,5.478,138.268Z" transform="translate(0 -132.452)" fill="#0d2b51"/>
  <path id="Path_5774" data-name="Path 5774" d="M226.682,384.556l.265,1.708a1.152,1.152,0,0,0,1.776.785l3.255-2.152a1.665,1.665,0,0,0,.746-1.269l.144-1.866A15.3,15.3,0,0,1,226.682,384.556Z" transform="translate(-217.147 -365.706)" fill="#0d2b51"/>
  <path id="Path_5775" data-name="Path 5775" d="M97.026,243.211a1.085,1.085,0,0,0,.178-.015,12.362,12.362,0,0,0,2.562-.726l-7.021-7.021a12.359,12.359,0,0,0-.726,2.562,1.1,1.1,0,0,0,.31.958l3.918,3.918A1.1,1.1,0,0,0,97.026,243.211Z" transform="translate(-88.134 -225.545)" fill="#0d2b51"/>
  <path id="Path_5776" data-name="Path 5776" d="M137.562,9.548a17.011,17.011,0,0,0,1.692-8.479A1.106,1.106,0,0,0,138.209.025c-.268-.015-.586-.025-.944-.025a16.669,16.669,0,0,0-7.535,1.717,17.14,17.14,0,0,0-6.818,6.968.635.635,0,0,1,.059.051l7.571,7.571a.635.635,0,0,1,.051.058A17.14,17.14,0,0,0,137.562,9.548Zm-7.3-5a3.155,3.155,0,1,1-.924,2.231,3.158,3.158,0,0,1,.924-2.231Z" transform="translate(-117.743 0)" fill="#00d563"/>
  <path id="Path_5777" data-name="Path 5777" d="M306.285,119.524a1.893,1.893,0,1,0-.554-1.338A1.9,1.9,0,0,0,306.285,119.524Z" transform="translate(-292.871 -111.402)" fill="#00d563"/>
  <path id="Path_5778" data-name="Path 5778" d="M.935,346.286a.629.629,0,0,0,.446-.185l2.06-2.06a.631.631,0,0,0-.892-.892l-2.06,2.06a.631.631,0,0,0,.446,1.077Z" transform="translate(-0.292 -328.539)" fill="#0d2b51"/>
  <path id="Path_5779" data-name="Path 5779" d="M5.041,388.03a.631.631,0,0,0-.892,0l-3.96,3.96a.631.631,0,1,0,.892.892l3.96-3.96a.631.631,0,0,0,0-.892Z" transform="translate(-0.003 -371.532)" fill="#0d2b51"/>
  <path id="Path_5780" data-name="Path 5780" d="M92.311,432.911l-2.06,2.06a.631.631,0,1,0,.892.892l2.06-2.06a.631.631,0,0,0-.892-.892Z" transform="translate(-86.278 -414.525)" fill="#0d2b51"/>
</svg>
