<svg xmlns="http://www.w3.org/2000/svg" width="64.012" height="63.92" viewBox="0 0 64.012 63.92">
  <g id="skill" transform="translate(-0.001 -0.366)">
    <path id="Path_7367" data-name="Path 7367" d="M154.2,225.708a8.645,8.645,0,1,0-12.151,0,15.436,15.436,0,0,0-9.338,14.165,8.654,8.654,0,0,0,8.645,8.645H154.9a8.654,8.654,0,0,0,8.645-8.645A15.436,15.436,0,0,0,154.2,225.708Z" transform="translate(-116.12 -184.231)" fill="#00d563"/>
    <path id="Path_7368" data-name="Path 7368" d="M183.252,12.363l.114,4.321a1.875,1.875,0,0,0,2.407,1.749l4.144-1.227,4.144,1.227a1.875,1.875,0,0,0,2.407-1.749l.114-4.321L199.031,8.8a1.875,1.875,0,0,0-.919-2.83l-4.074-1.444L191.405,1.1a1.876,1.876,0,0,0-2.975,0L185.8,4.528l-4.074,1.444A1.875,1.875,0,0,0,180.8,8.8Z" transform="translate(-157.911)" fill="#0d2b51"/>
    <path id="Path_7369" data-name="Path 7369" d="M18.793,100.119a1.875,1.875,0,0,0-1.157-1.188l-4.074-1.444-2.632-3.429a1.876,1.876,0,0,0-2.975,0L5.324,97.487,1.25,98.93a1.875,1.875,0,0,0-.919,2.83l2.447,3.562.114,4.321A1.875,1.875,0,0,0,5.3,111.392l4.144-1.227,4.144,1.227a1.875,1.875,0,0,0,2.407-1.749l.114-4.321,2.447-3.562a1.876,1.876,0,0,0,.238-1.641Z" transform="translate(0 -81.337)" fill="#0d2b51"/>
    <path id="Path_7370" data-name="Path 7370" d="M379.745,100.119a1.875,1.875,0,0,0-1.157-1.188l-4.074-1.444-2.632-3.429a1.876,1.876,0,0,0-2.975,0l-2.632,3.429L362.2,98.93a1.875,1.875,0,0,0-.919,2.83l2.447,3.562.114,4.321a1.875,1.875,0,0,0,2.407,1.749l4.144-1.227,4.144,1.227a1.875,1.875,0,0,0,2.407-1.749l.114-4.321,2.447-3.562A1.877,1.877,0,0,0,379.745,100.119Z" transform="translate(-315.824 -81.337)" fill="#0d2b51"/>
  </g>
</svg>
