<svg id="tick" xmlns="http://www.w3.org/2000/svg" width="42.317" height="42.317" viewBox="0 0 42.317 42.317">
  <g id="Group_11802" data-name="Group 11802" transform="translate(10.179 13.668)">
    <g id="Group_11801" data-name="Group 11801">
      <path id="Path_7349" data-name="Path 7349" d="M144.7,165.9a1.715,1.715,0,0,0-2.425-.064l-10.952,10.387-5.224-5.363a1.715,1.715,0,0,0-2.458,2.394l6.4,6.576a1.716,1.716,0,0,0,2.41.048l12.181-11.551A1.715,1.715,0,0,0,144.7,165.9Z" transform="translate(-123.158 -165.364)" fill="#0d2b51"/>
    </g>
  </g>
  <g id="Group_11804" data-name="Group 11804">
    <g id="Group_11803" data-name="Group 11803">
      <path id="Path_7350" data-name="Path 7350" d="M21.159,0A21.159,21.159,0,1,0,42.317,21.159,21.183,21.183,0,0,0,21.159,0Zm0,38.886A17.728,17.728,0,1,1,38.886,21.159,17.748,17.748,0,0,1,21.159,38.886Z" fill="#00d563"/>
    </g>
  </g>
</svg>
