<svg xmlns="http://www.w3.org/2000/svg" width="49.618" height="57.634" viewBox="0 0 49.618 57.634">
  <g id="venture" transform="translate(-7.382 -3)">
    <path id="Path_8483" data-name="Path 8483" d="M53.578,29.845l.795-1.589A54.582,54.582,0,0,0,37.642,37H42A12.945,12.945,0,0,0,53.578,29.845Z" fill="#00d563"/>
    <path id="Path_8484" data-name="Path 8484" d="M49,27a12.945,12.945,0,0,0-11.578,7.155l-.412.824A56.53,56.53,0,0,1,51.826,27Z" fill="#00d563"/>
    <path id="Path_8485" data-name="Path 8485" d="M15,27H12.174A56.532,56.532,0,0,1,26.99,34.979l-.412-.823A12.944,12.944,0,0,0,15,27Z" fill="#00d563"/>
    <path id="Path_8486" data-name="Path 8486" d="M10.422,29.845A12.945,12.945,0,0,0,22,37h4.359A54.618,54.618,0,0,0,9.628,28.255Z" fill="#00d563"/>
    <path id="Path_8487" data-name="Path 8487" d="M7.382,49.337l6.951,11.3,3.285-1.971-6.951-11.3Z" fill="#0d2b51"/>
    <path id="Path_8488" data-name="Path 8488" d="M55,39a2.012,2.012,0,0,0-1.2.4L42.946,47.541A4,4,0,0,1,39,51H26V49H39a2,2,0,0,0,0-4H35.089A11.823,11.823,0,0,1,33,44.809V40.5l3.614-2.711.759-.59c.088-.069.18-.131.269-.2H36l1.01-2.021c-.288.215-.581.421-.865.642L33,37.993V32.822A3.014,3.014,0,0,0,34.816,31H29.185A3.014,3.014,0,0,0,31,32.822V38l-2.386-1.789-.758-.59c-.284-.221-.578-.427-.866-.643L28,37H26.359c.089.068.18.131.269.2L31,40.5V44.26c-.1-.038-.209-.067-.312-.108A16.049,16.049,0,0,0,24.7,43a16.214,16.214,0,0,0-9.667,3.223l-1.865,1.4,5.259,8.546.291-.145a9.78,9.78,0,0,1,6.426-.791l6.861,1.524a10.408,10.408,0,0,0,8.4-1.812L55.8,43.4A3.017,3.017,0,0,0,57,41a2,2,0,0,0-2-2Z" fill="#0d2b51"/>
    <path id="Path_8489" data-name="Path 8489" d="M27.733,25h8.533a15.317,15.317,0,0,1,3.141-5.285,10,10,0,1,0-14.815,0A15.3,15.3,0,0,1,27.733,25ZM32,14a2.993,2.993,0,0,1-1-5.816V7h2V8.184A3,3,0,0,1,35,11H33a1,1,0,1,0-1,1,2.993,2.993,0,0,1,1,5.816V19H31V17.816A3,3,0,0,1,29,15h2a1,1,0,1,0,1-1Z" fill="#00d563"/>
    <path id="Path_8490" data-name="Path 8490" d="M28,27h8v2H28Z"/>
  </g>
</svg>
